<?xml version="1.0" encoding="utf-8"?><svg xmlns="http://www.w3.org/2000/svg" xmlns:xlink="http://www.w3.org/1999/xlink"><symbol viewBox="0 0 14 7" id="arrow" xmlns="http://www.w3.org/2000/svg"><path d="M14 .774a.727.727 0 01-.311.622L7.465 6.064a.749.749 0 01-.934 0L.307 1.396C-.035 1.147-.098.65.151.307c.25-.342.747-.405 1.09-.156l5.757 4.326L12.755.151c.342-.249.84-.186 1.09.156A.838.838 0 0114 .774z"/></symbol><symbol viewBox="0 0 24 24" id="lang" xmlns="http://www.w3.org/2000/svg"><path d="M12 24A12 12 0 100 12a12.014 12.014 0 0012 12zm3.214-1.562c1.036-.99 1.898-2.453 2.503-4.236 1.018.124 1.98.288 2.904.491a10.956 10.956 0 01-5.407 3.745zm6.073-4.7a31.355 31.355 0 00-3.255-.584 19.97 19.97 0 00.634-4.615h4.242a10.846 10.846 0 01-1.621 5.2zm1.62-6.277h-4.241a19.944 19.944 0 00-.634-4.616 31.389 31.389 0 003.255-.584 10.847 10.847 0 011.62 5.2zm-2.286-6.154c-.923.203-1.886.367-2.904.491-.605-1.783-1.468-3.245-2.503-4.236a10.956 10.956 0 015.407 3.745zm-8.082-4.032c1.655.321 3.124 2.102 4.046 4.644a48.969 48.969 0 01-4.046.188V1.275zm0 5.91c1.58-.012 3.03-.083 4.385-.215.404 1.464.627 2.972.663 4.49H12.54V7.187zm0 5.354h5.048a18.498 18.498 0 01-.663 4.49 49.365 49.365 0 00-4.385-.215v-4.275zm0 5.353c1.454.013 2.794.075 4.046.189-.922 2.542-2.39 4.323-4.046 4.644v-4.833zm-1.078 4.833c-1.655-.321-3.125-2.102-4.047-4.644a48.981 48.981 0 014.047-.189v4.833zm0-5.911a49.37 49.37 0 00-4.385.216 18.501 18.501 0 01-.663-4.49h5.048v4.274zm0-5.353H6.413a18.5 18.5 0 01.663-4.491c1.354.132 2.804.203 4.385.216v4.275zm0-10.186v4.832a48.968 48.968 0 01-4.047-.188c.923-2.542 2.392-4.323 4.047-4.644zm-2.675.287c-1.036.99-1.898 2.453-2.503 4.236a30.964 30.964 0 01-2.904-.491 10.957 10.957 0 015.407-3.745zm-6.073 4.7c1.074.251 2.16.446 3.255.583a19.947 19.947 0 00-.634 4.616H1.092c.09-1.843.648-3.633 1.621-5.2zm-1.62 6.277h4.241a19.94 19.94 0 00.634 4.615 31.473 31.473 0 00-3.255.585 10.847 10.847 0 01-1.62-5.2zm5.19 5.663c.605 1.783 1.467 3.245 2.503 4.236a10.956 10.956 0 01-5.407-3.745 30.956 30.956 0 012.904-.491z"/></symbol><symbol viewBox="0 0 15 27" id="slide-arrow" xmlns="http://www.w3.org/2000/svg"><path d="M5.04 13.506l9.552-10.101A1.51 1.51 0 0015 2.361a1.51 1.51 0 00-.408-1.045l-.837-.884a1.348 1.348 0 00-1.975 0L.407 12.458A1.508 1.508 0 000 13.505c-.001.398.143.77.407 1.049L11.77 26.568a1.348 1.348 0 001.975 0l.837-.884a1.54 1.54 0 000-2.089L5.04 13.505z"/></symbol><symbol viewBox="0 0 448.941 448.941" id="star" xmlns="http://www.w3.org/2000/svg"><path d="M448.941 168.353H287.603L224.471 0l-63.132 168.353H0l121.478 106.293-65.36 174.295 168.353-84.176 168.353 84.176-65.361-174.296z"/></symbol></svg>