<svg width="393" height="306" fill="none" xmlns="http://www.w3.org/2000/svg"><g clip-path="url(#clip0)"><path d="M348.561 79.09c-8.371 4.806-16.516 10.087-24.517 15.602 18.209-24.043 5.406-42.67 5.406-42.67-20.786 27.498-15.938 42.879-13.089 48.029-4.913 3.577-9.702 7.323-14.439 11.148 11.914-28.733-5.853-43.561-5.853-43.561-11.765 29.877-4.945 43.652-.617 48.796-7.638 6.451-15.003 13.248-22.115 20.285 9.954-31.536-10.468-44.68-10.468-44.68-8.514 32.752 1.292 45.239 6.016 49.161-16.399 16.766-31.266 34.982-44.121 54.285-1.622 2.439 2.232 4.852 3.861 2.406 7.937-11.921 16.678-23.445 26.081-34.482 36.911 13.443 47.372-3.232 47.372-3.232-17.418-9.944-30.487-9.111-39.085-5.996 6.56-7.213 13.309-14.263 20.415-20.955.921 1.971 10.136 18.932 50.059 10.575 0 0-13.524-23.582-49.715-10.907 11.421-10.724 23.556-20.642 36.158-29.773 35.218 23.387 49.637 8.461 49.637 8.461-19.533-17.494-35.691-15.452-44.14-12.298 7.826-5.444 15.788-10.62 23.958-15.362 40.001-.877 43.648-20.512 43.648-20.512-27.612-3.915-39.773 8.422-44.452 15.68z" fill="#B8DCF9"/><path d="M3.283 223.287c1.668-2.393 4.03-4.643 7.171-6.711 23.965-15.791 90.961 27.198 111.766 47.645l17.709 24.076c-11.538-3.382-76.035-6.646-91.532-10.171-23.913-5.437-56.996-32.921-46.34-52.868.35-.657.76-1.32 1.226-1.971z" fill="#54AFF9"/><path d="M16.807 178.946c.124-.143.266-.279.403-.422 1.48-1.477 3.264-2.634 5.107-3.655 14.497-8.013 33.264-7.623 47.41.995 5.017 3.056 9.423 7.017 13.622 11.134 20.616 20.219 36.931 44.816 47.625 71.669l8.949 29.624c-5.88-6.042-40.896-25.312-47.995-29.825-10.571-6.712-22.473-10.985-34.024-15.804-11.557-4.832-23.095-10.399-32.064-19.147-8.98-8.747-15.126-21.214-13.569-33.669.422-3.388 1.46-6.809 3.453-9.56.33-.468.687-.917 1.083-1.34z" fill="#417BD9"/><path d="M138.819 286.503c.396.611.766 1.21 1.11 1.788-.35-.578-.72-1.177-1.11-1.788zm.001 0a29.998 29.998 0 00-.37-.56c.117.189.246.378.37.56zm-66.704-67.969c-9.87-8.546-19.987-17.339-31.35-23.842-8.397-4.8-17.521-8.422-25.042-14.406.33-.468.688-.91 1.077-1.333.123-.143.266-.28.402-.423 8.397 6.731 18.949 10.465 28.086 16.181 11.674 7.304 22.29 16.617 32.544 25.754 15.133 13.482 48.384 46.761 60.61 65.478-13.128-20.005-49.715-53.036-66.327-67.409z" fill="#D7FBFF"/><path d="M58.825 249.718c16.412 8.494 66.276 27.569 81.104 38.58-16.016-11.843-69.072-30.06-86.918-38.924-10.811-5.379-21.914-9.957-33.14-14.36-6.542-2.569-13.018-5.379-18.632-9.404a18.74 18.74 0 011.233-1.984c6.911 5.014 15.218 8.019 23.245 11.147a346.356 346.356 0 0133.108 14.945z" fill="#fff"/><path d="M96.756 144.972a24.19 24.19 0 012.446-.312c8.904-.735 19.715 2.842 29.669 13.69 19.17 20.889 12.746 117.597 11.052 129.941l-17.229-22.945c-9.397-14.028-44.361-91.661-42.492-105.605.947-7.095 7.547-13.176 16.554-14.769z" fill="#95C8FD"/><path d="M106.535 166.954c-2.875-7.486-6.268-14.77-9.78-21.976a24.21 24.21 0 012.447-.312c3.271 6.744 6.431 13.534 9.144 20.506 3.984 10.223 6.346 20.571 8.189 31.367 2.758 16.187 5.808 32.335 9.916 48.217-5.068-16.942-9.818-33.968-11.564-44.094-2.005-11.557-4.14-22.717-8.352-33.708z" fill="#fff"/><path d="M139.923 288.291l-9.462-29.214a345.587 345.587 0 01-4.023-14.327c5.068 16.922 10.448 33.754 13.485 43.541z" fill="#417BD9"/><path d="M266.861 300.186H119.78c-6.1 0-11.045-4.956-11.045-11.069V11.069C108.735 4.956 113.68 0 119.78 0h147.081c6.1 0 11.045 4.956 11.045 11.07v278.04c0 6.12-4.945 11.076-11.045 11.076z" fill="#6BBEE7"/><path d="M271.014 25.956H115.627v256.189h155.387V25.956z" fill="#E5F2F9"/><path fill-rule="evenodd" clip-rule="evenodd" d="M257.932 56.126H128.71c-4.53 0-8.196-3.68-8.196-8.214 0-4.54 3.673-8.214 8.196-8.214h129.228c4.53 0 8.196 3.681 8.196 8.214s-3.673 8.214-8.202 8.214z" fill="#4A8DC9"/><path d="M177.347 43.679h-13.563a4.223 4.223 0 00-4.218 4.227 4.223 4.223 0 004.218 4.227h13.563a4.222 4.222 0 004.218-4.227 4.222 4.222 0 00-4.218-4.227zm11.097 2.64v3.174h38.631v-3.174h-38.631z" fill="#4A8DC9"/><path d="M193.062 195.344c19.04-1.001 33.665-17.282 32.665-36.364-.999-19.081-17.243-33.739-36.283-32.737-19.04 1.001-33.665 17.282-32.666 36.363.999 19.082 17.244 33.739 36.284 32.738z" fill="#F59845"/><path d="M210.639 141.37c10.705 10.728 10.705 28.122 0 38.85-10.705 10.728-28.06 10.728-38.765 0-10.705-10.728-10.705-28.122 0-38.85 10.705-10.728 28.06-10.728 38.765 0z" fill="#F69C44" stroke="#fff" stroke-width="2"/><path d="M193.083 174.165l-14.977-7.323 16.45 17.163 10.889-21.468-12.362 11.628z" fill="#fff"/><path d="M207.01 157.725l-14.368 13.521-17.404-8.52 12.654-24.948 19.118 19.947z" fill="#fff"/><path d="M238.046 124.536c15.699-.872 27.721-14.333 26.851-30.066-.869-15.734-14.301-27.782-30-26.911-15.699.871-27.721 14.332-26.851 30.066.869 15.734 14.301 27.782 30 26.911z" fill="#F59845"/><path d="M241.627 74.188c12.052 2.852 19.519 14.957 16.672 27.04-2.847 12.083-14.928 19.563-26.98 16.711-12.052-2.853-19.518-14.958-16.671-27.04 2.846-12.084 14.927-19.563 26.979-16.711z" fill="#F69C44" stroke="#fff" stroke-width="2"/><path d="M235.244 116.427v-4.852c-3.037-.046-6.178-.911-8.008-2.114l1.259-3.219c1.882 1.151 4.608 2.068 7.534 2.068 3.719 0 6.23-1.97 6.23-4.708 0-2.641-2.038-4.28-5.912-5.717-5.34-1.919-8.637-4.13-8.637-8.312 0-3.986 3.089-7.017 7.904-7.739v-4.852h3.245v4.663c3.141.098 5.282.865 6.801 1.685l-1.311 3.174c-1.097-.58-3.245-1.633-6.593-1.633-4.03 0-5.549 2.212-5.549 4.13 0 2.497 1.934 3.746 6.489 5.476 5.393 2.016 8.112 4.52 8.112 8.793 0 3.798-2.881 7.349-8.267 8.168v4.995h-3.297v-.006z" fill="#fff"/><path d="M185.027 243.393c3.241-13.755-5.258-27.538-18.983-30.786-13.725-3.248-27.478 5.269-30.719 19.024-3.241 13.755 5.258 27.539 18.983 30.787 13.725 3.248 27.479-5.27 30.719-19.025z" fill="#F59845"/><path d="M180.195 237.491c0 11.085-8.964 20.059-20.013 20.059-11.054 0-20.012-8.98-20.012-20.059 0-11.078 8.964-20.058 20.012-20.058 11.055 0 20.013 8.98 20.013 20.058z" fill="#F69C44" stroke="#fff" stroke-width="2"/><path d="M158.028 246.831h-6.931v-4.137h6.931v-2.243h-6.931v-4.137h4.874l-5.808-11.81h5.756l3.737 7.973c.474 1.002.812 1.88 1.006 2.641.234-.826.571-1.704 1.006-2.641l3.809-7.973h5.756l-5.885 11.81h4.951v4.137h-7.021v2.243h7.021v4.137h-7.021v5.111h-5.25v-5.111z" fill="#fff"/><path d="M320.326 305.999H185.27c-7.826 0-14.173-6.36-14.173-14.203V189.254c0-7.844 6.347-14.204 14.173-14.204h135.056c7.826 0 14.172 6.36 14.172 14.204v102.542c0 7.843-6.346 14.203-14.172 14.203z" fill="#4A8DC9"/><path d="M324.148 175.044H181.441c-5.717 0-10.35 4.644-10.35 10.373 0 5.73 4.633 10.373 10.35 10.373h142.707c5.717 0 10.351-4.643 10.351-10.373 0-5.729-4.634-10.373-10.351-10.373z" fill="#DF6631"/><path d="M324.187 192.272h-3.55v-.995h3.55c.461 0 .921-.013 1.376-.046l.071.995c-.48.033-.96.046-1.447.046zm-8.508 0h-4.958v-.995h4.958v.995zm-9.915 0h-4.958v-.995h4.958v.995zm-9.91 0h-4.957v-.995h4.957v.995zm-9.915 0h-4.958v-.995h4.958v.995zm-9.916 0h-4.958v-.995h4.958v.995zm-9.916 0h-4.958v-.995h4.958v.995zm-9.915 0h-4.958v-.995h4.958v.995zm-9.916 0h-4.958v-.995h4.958v.995zm-9.916 0h-4.958v-.995h4.958v.995zm-9.915 0h-4.958v-.995h4.958v.995zm-9.916 0h-4.958v-.995h4.958v.995zm-9.916 0h-4.958v-.995h4.958v.995zm-9.916 0h-4.957v-.995h4.957v.995zm-9.922-.007l-3.011-.006c-.714 0-1.382 0-1.94.006l-.007-.995c.559 0 1.227-.006 1.947-.006l3.018.006-.007.995zm-9.993-1.151c-1.064-.8-1.707-1.957-2.382-3.174-.182-.325-.37-.663-.571-1.008l.857-.5c.207.351.396.696.584 1.027.649 1.177 1.213 2.185 2.109 2.862l-.597.793zm153.673-.832l-.733-.664c.454-.507.792-1.157 1-1.931l.953.26c-.246.93-.655 1.717-1.22 2.335z" fill="#fff"/><path d="M334.499 261.626h-68.554c-7.261 0-13.153-5.898-13.153-13.183 0-7.277 5.885-13.182 13.153-13.182h68.554v26.365z" fill="#DF6631"/><path d="M333.188 260.384h-4.958v-.995h4.958v.995zm-9.916 0h-4.958v-.995h4.958v.995zm-9.916 0h-4.957v-.995h4.957v.995zm-9.915 0h-4.958v-.995h4.958v.995zm-9.916 0h-4.958v-.995h4.958v.995zm-9.916 0h-4.957v-.995h4.957v.995zm-9.915 0h-4.958v-.995h4.958v.995zm-9.994-.846a13.356 13.356 0 01-4.4-2.627l.662-.735a12.254 12.254 0 004.069 2.426l-.331.936zm-7.398-6.796a10.906 10.906 0 01-.876-4.299c0-.26.007-.527.026-.78l.987.071a9.89 9.89 0 00.772 4.618l-.909.39zm1.558-9.482l-.85-.507a12.338 12.338 0 013.504-3.753l.571.813c-1.337.949-2.421 2.107-3.225 3.447zm7.553-5.392l-.233-.969a14.495 14.495 0 013.394-.403h1.654v.995h-1.654c-1.071 0-2.135.13-3.161.377zm64.303-.377h-4.958v-.995h4.958v.995zm-9.916 0h-4.957v-.995h4.957v.995zm-9.915 0h-4.958v-.995h4.958v.995zm-9.916 0h-4.958v-.995h4.958v.995zm-9.916 0h-4.958v-.995h4.958v.995zm-9.915 0h-4.958v-.995h4.958v.995zm-6.99 10.953c0 3.427-2.771 6.204-6.191 6.204-3.419 0-6.19-2.777-6.19-6.204 0-3.428 2.771-6.205 6.19-6.205 3.42 0 6.191 2.777 6.191 6.205zm53.511-99.59l-45.113-45.219-78.625 78.797h90.234l33.504-33.578z" fill="#fff"/><path d="M281.545 110.373l-71.901 72.06h6.723l56.171-56.295c5.347 4.708 13.219 5.001 18.878.878l11.92 11.947c-4.12 5.671-3.828 13.56.877 18.919l-24.504 24.557h6.723l33.504-33.578-38.391-38.488zm-37.352 51.619c-5.529 5.541-6.477 13.911-2.882 20.441h30.007c3.595-6.53 2.641-14.906-2.881-20.441-6.697-6.712-17.554-6.712-24.244 0z" fill="#84CD3B"/><path d="M315.595 187.96l25.23-25.286-45.113-45.213-70.351 70.499h90.234z" fill="#fff"/><path d="M295.712 124.199l-63.628 63.768h6.723l47.898-48.003c5.347 4.709 13.218 5.001 18.877.878l11.921 11.947c-4.121 5.671-3.829 13.56.87 18.919l-16.23 16.265h6.723l25.23-25.286-38.384-38.488zm-37.359 51.613c-3.349 3.355-5.004 7.752-5.004 12.148H287.6c.007-4.396-1.655-8.793-5.003-12.148-6.691-6.712-17.547-6.712-24.244 0z" fill="#84CD3B"/><path d="M320.384 156.47H185.211v31.49h135.173v-31.49z" fill="#fff"/><path d="M189.961 161.237v26.724h4.757v-7.967c6.918-1.093 12.271-6.875 12.732-13.996h90.695c.461 7.121 5.814 12.903 12.732 13.996v7.967h4.757v-26.724H189.961zm62.837 10.029c-9.306 0-16.86 7.433-17.119 16.701h34.237c-.259-9.268-7.813-16.701-17.118-16.701z" fill="#84CD3B"/><path d="M156.038 117.763c6.085-7.811 4.7-19.087-3.094-25.185-7.794-6.099-19.045-4.71-25.13 3.1-6.086 7.811-4.7 19.087 3.093 25.186 7.794 6.098 19.045 4.71 25.131-3.101z" fill="#F59845"/><path d="M155.915 104.03c1.487 7.74-3.568 15.221-11.289 16.711-7.72 1.49-15.186-3.574-16.673-11.314-1.488-7.74 3.568-15.221 11.288-16.711 7.721-1.49 15.186 3.574 16.674 11.314z" fill="#F69C44" stroke="#fff"/><path d="M136.704 99.244l3.057-1.294 3.296 14.002 8.092-3.44.812 3.206-11.214 4.748-4.043-17.222z" fill="#fff"/><path d="M143.79 105.475l-6.859 5.014-.299-1.671 6.827-5.002.331 1.659z" fill="#EEA13F"/></g><defs><clipPath id="clip0"><path fill="#fff" d="M0 0h393v306H0z"/></clipPath></defs></svg>