<svg width="223" height="55" fill="none" xmlns="http://www.w3.org/2000/svg"><g clip-path="url(#clip0)"><path d="M69.121 5.348h4.565V18.92c1.973-1.434 4.08-2.15 6.321-2.15 2.926 0 5.318 1.1 7.174 3.299 1.856 2.2 2.784 5.024 2.784 8.473 0 3.699-1.108 6.645-3.324 8.835-2.216 2.192-5.18 3.287-8.892 3.287-1.488 0-3.056-.158-4.702-.475-1.647-.316-2.956-.716-3.926-1.2V5.349zm4.565 17.92v12.447c1.555.467 3.152.7 4.791.7 2.023 0 3.675-.716 4.953-2.15 1.28-1.432 1.92-3.274 1.92-5.523 0-2.282-.599-4.14-1.794-5.574-1.195-1.432-2.755-2.15-4.678-2.15-1.705 0-3.436.75-5.192 2.25zM97.364 7.597a2.68 2.68 0 011.931.774c.535.516.803 1.15.803 1.9 0 .733-.268 1.366-.803 1.9a2.638 2.638 0 01-1.931.799c-.703 0-1.321-.27-1.856-.812-.535-.542-.803-1.17-.803-1.887 0-.7.268-1.32.803-1.862s1.154-.812 1.856-.812zm-2.257 9.672h4.564v22.995h-4.564V17.269zm7.925 3.647l8.579-8.397v4.748h7.299v4.1h-7.299V32.62c0 2.628 1.095 3.942 3.285 3.942 1.639 0 3.369-.541 5.192-1.625v4.249c-1.756.984-3.67 1.475-5.743 1.475-2.091 0-3.83-.608-5.217-1.824a5.163 5.163 0 01-1.079-1.238c-.285-.458-.523-1.057-.715-1.8-.193-.74-.288-2.152-.288-4.235V21.365h-4.014v-.45zm21.019-15.568h18.686v4.449h-13.669v9.747h13.669v4.45h-13.669v16.27h-5.017V5.348zm28.092 0h-4.565v34.916h4.565V5.348zm20.763 11.921h5.122l-16.35 34.717h-5.095l7.833-16.66-8.912-18.057h5.202l6.231 12.989 5.969-12.99zm27.997 11.898h-16.228c.116 2.199.856 3.95 2.22 5.249 1.362 1.299 3.122 1.949 5.279 1.949 3.01 0 5.786-.933 8.328-2.8v4.45c-1.405.933-2.797 1.6-4.177 2-1.379.4-2.997.6-4.853.6-2.542 0-4.598-.525-6.17-1.575-1.572-1.05-2.83-2.462-3.775-4.237-.945-1.775-1.417-3.828-1.417-6.161 0-3.5.995-6.344 2.985-8.535 1.989-2.192 4.573-3.288 7.75-3.288 3.06 0 5.501 1.067 7.324 3.2 1.822 2.133 2.734 4.99 2.734 8.573v.575zm-16.128-2.725h11.613c-.117-1.816-.661-3.215-1.63-4.199-.97-.983-2.275-1.474-3.913-1.474-1.639 0-2.981.491-4.026 1.474-1.045.984-1.726 2.383-2.044 4.2zm25.96-9.172v5.273l.251-.4c2.207-3.549 4.414-5.324 6.622-5.324 1.721 0 3.519.867 5.392 2.6l-2.408 3.999c-1.589-1.5-3.06-2.249-4.414-2.249-1.472 0-2.746.7-3.825 2.1-1.079 1.398-1.618 3.057-1.618 4.973v12.022h-4.59V17.27h4.59z" fill="#000"/><path d="M16.7 0H.001v16.641h16.7V0zm19.247 0h-16.7v16.641h16.7V0zM16.7 19.18H0v16.64h16.7V19.18zm0 19.178H0V55h16.7V38.36zM55.193 0h-16.7v16.641h16.7V0z" fill="#478BCA"/><path d="M19.318 27.5c0 4.556 3.706 8.25 8.279 8.25 4.572 0 8.279-3.694 8.279-8.25s-3.707-8.25-8.28-8.25c-4.572 0-8.278 3.694-8.278 8.25z" fill="#F27F56"/></g><defs><clipPath id="clip0"><path fill="#fff" d="M0 0h223v55H0z"/></clipPath></defs></svg>