<svg width="163" height="40" fill="none" xmlns="http://www.w3.org/2000/svg"><g clip-path="url(#clip0)"><path d="M50.524 3.889h3.336v9.87c1.442-1.042 2.983-1.564 4.62-1.564 2.139 0 3.887.8 5.244 2.4 1.357 1.6 2.035 3.654 2.035 6.162 0 2.69-.81 4.833-2.43 6.426-1.619 1.594-3.785 2.39-6.499 2.39a18.33 18.33 0 01-3.437-.345c-1.204-.23-2.16-.521-2.87-.873V3.89zm3.336 13.033v9.052c1.137.34 2.304.51 3.502.51 1.479 0 2.686-.522 3.62-1.564.936-1.042 1.403-2.382 1.403-4.017 0-1.66-.437-3.012-1.31-4.054-.874-1.042-2.014-1.563-3.42-1.563-1.246 0-2.511.545-3.795 1.636zM71.167 5.524c.55 0 1.02.188 1.412.564.39.375.587.835.587 1.381 0 .533-.196.994-.587 1.382a1.931 1.931 0 01-1.412.58c-.513.001-.965-.196-1.356-.59-.392-.393-.587-.85-.587-1.372 0-.509.195-.96.587-1.354.39-.394.843-.59 1.356-.59zm-1.65 7.035h3.337v16.723h-3.337V12.56zm5.793 2.653l6.27-6.108v3.454h5.336v2.981H81.58v8.185c0 1.912.8 2.868 2.401 2.868 1.198 0 2.463-.394 3.795-1.182v3.09c-1.283.715-2.683 1.073-4.198 1.073-1.528 0-2.799-.443-3.813-1.327a3.776 3.776 0 01-.789-.9c-.208-.333-.382-.77-.522-1.309-.14-.54-.21-1.566-.21-3.08v-7.418H75.31v-.327zM90.674 3.889h13.659v3.235h-9.992v7.09h9.992v3.235h-9.992v11.834h-3.667V3.889zm20.534 0h-3.337v25.394h3.337V3.889zm15.176 8.67h3.744l-11.951 25.248h-3.724l5.725-12.116-6.513-13.132h3.802l4.554 9.446 4.363-9.446zm20.464 8.652h-11.861c.085 1.6.626 2.873 1.622 3.818.996.945 2.283 1.417 3.859 1.417 2.2 0 4.229-.678 6.087-2.036v3.236c-1.027.68-2.044 1.164-3.053 1.455-1.008.29-2.19.436-3.547.436-1.858 0-3.361-.382-4.51-1.145-1.149-.764-2.069-1.79-2.759-3.082-.691-1.29-1.036-2.784-1.036-4.48 0-2.545.727-4.614 2.182-6.208 1.454-1.594 3.342-2.39 5.665-2.39 2.236 0 4.021.776 5.353 2.326 1.332 1.552 1.998 3.63 1.998 6.235v.418zm-11.788-1.98h8.488c-.085-1.322-.483-2.34-1.192-3.055-.708-.715-1.662-1.072-2.86-1.072s-2.178.357-2.942 1.072c-.764.716-1.262 1.733-1.494 3.054zm18.975-6.672v3.835l.183-.29c1.614-2.582 3.227-3.873 4.84-3.873 1.259 0 2.573.63 3.942 1.891l-1.76 2.908c-1.161-1.09-2.236-1.635-3.227-1.635-1.075 0-2.007.508-2.796 1.527-.788 1.017-1.182 2.223-1.182 3.617v8.743h-3.355V12.56h3.355zM12.207 0H.001v12.103h12.206V0zm14.068 0H14.068v12.103h12.207V0zM12.206 13.95H0v12.102h12.206V13.949zm0 13.948H0V40h12.206V27.898zM40.343 0H28.137v12.103h12.206V0z" fill="#fff"/><path d="M14.12 20c0 3.314 2.71 6 6.052 6 3.342 0 6.051-2.686 6.051-6s-2.71-6-6.051-6c-3.343 0-6.052 2.686-6.052 6z" fill="#F27F56"/></g><defs><clipPath id="clip0"><path fill="#fff" d="M0 0h163v40H0z"/></clipPath></defs></svg>