<svg width="562" height="371" fill="none" xmlns="http://www.w3.org/2000/svg"><g clip-path="url(#clip0)"><path d="M261.332 318.878c0 11.572-9.462 21.048-21.045 21.048H114.592c-11.571 0-21.033-9.464-21.033-21.048V21.036C93.559 9.464 103.02 0 114.592 0h125.707c11.571 0 21.045 9.464 21.045 21.036v297.842h-.012z" fill="#6BBEE7"/><path d="M117.838 336.691c-11.571 0-21.045-9.476-21.045-21.048V24.283c0-11.573 9.462-21.049 21.045-21.049h119.227c11.571 0 21.045 9.476 21.045 21.048v291.361c0 11.572-9.474 21.048-21.045 21.048H117.838z" fill="#ABDAF2"/><path d="M188.363 20.509c0 .743-.598 1.342-1.341 1.342h-19.416a1.34 1.34 0 01-1.342-1.342c0-.755.599-1.354 1.342-1.354h19.416c.743 0 1.341.6 1.341 1.354zM96.59 52.949h-3.953v-12.95h3.952v12.95zm0 33.997h-3.953V65.084h3.952v21.862zm0 25.899h-3.953V91.989h3.952v20.856z" fill="#32A3DE"/><path d="M250.96 38.585H103.668V300.01H250.96V38.585z" fill="#E5F2F9"/><path d="M187.844 276.98l-10.505 1.017-10.042-.975c-10.206-.985-20.484-2.085-29.949 1.918l-2.348.995L145.731 301h63.236L217 278.563c-9.248-3.752-19.249-2.547-29.156-1.583z" fill="#84CD3B"/><path opacity=".07" d="M187.844 276.98l-10.505 1.018-10.042-.976c-10.206-.986-20.484-2.088-29.949 1.92l-2.348.996s13.317-7.385 42.349 16.062C204.384 268.954 217 278.575 217 278.575c-9.248-3.767-19.249-2.56-29.156-1.595z" fill="#000"/><path d="M214.631 240s3.08 26.822 0 30.343C211.551 273.865 193 284 193 284v-44h21.631zm-74.935 0s-2.027 26.853.838 31.221C143.398 275.599 161 284 161 284v-44h-21.304z" fill="#FAC590"/><path d="M137 240.322L177.395 252 217 240.322l-2.153-12.308c-1.071-6.138-5.419-11.005-11.076-12.424L177.395 209l-26.812 6.674c-5.502 1.367-9.787 6.023-11.004 11.962L137 240.322z" fill="#EC7F50"/><path opacity=".1" d="M139.589 231.672c1.207-5.83 5.491-10.402 11.003-11.744l26.808-7.43 26.372 7.348c5.657 1.383 10.004 6.171 11.075 12.198l1.415 7.925.738-.217-2.153-12.084c-1.071-6.027-5.418-10.804-11.075-12.198L177.4 209l-26.808 6.553c-5.502 1.341-9.786 5.913-11.003 11.744L137 239.752l.863.248 1.726-8.328z" fill="#000"/><path d="M205 276.408s-18.733 10.972-27.702 10.582c-8.969-.391-26.298-7.408-26.298-7.408V236h51.884L205 276.408z" fill="#EC7F50"/><path d="M177.005 230c-4.977 0-9.005-4.227-9.005-9.45V214h18v6.55c.01 5.223-4.018 9.45-8.995 9.45zm13.732-20h-26.463c-1.811 0-3.274-1.531-3.274-3.426v-2.148c0-1.895 1.463-3.426 3.274-3.426h28.315c.779 0 1.411.661 1.411 1.476v4.098c.01 1.895-1.453 3.426-3.263 3.426z" fill="#FAC590"/><path opacity=".5" d="M168 221.557l4.222 3.195a9.77 9.77 0 009.556 0l4.222-2.994V217h-18v4.557z" fill="#ECAD6F"/><path d="M187.457 219.502l-6.121 4.33a9.122 9.122 0 01-8.931 0l-5.765-4.361a4.764 4.764 0 01-1.86-3.135l-1.64-11.456c-1.19-8.321 5.348-20.88 13.861-20.88h-.135c8.419 0 15.062 12.404 14.028 20.643l-1.452 11.538a4.738 4.738 0 01-1.985 3.321z" fill="#FAC590"/><path opacity=".5" d="M171 193.762s6.16 4.766 19.384 5.238c2.2-1.725-2.201-11-2.201-11L171 193.762z" fill="#ECAD6F"/><path d="M189.735 181.073a8.857 8.857 0 00-7.446-4.073h-7.701c-4.519 0-8.895 1.955-11.67 5.526-1.254 1.617-2.121 5.864-1.877 7.798l.959 7.532 1.949 7.87c.071.379.612.358.652-.02.337-3.071.194-7.799.194-7.799s4.601-3.213 5.927-4.492c4.539 1.463 11.261 2.712 16.045 2.712h2.448s.367 5.587.908 9.415c.071.481.765.471.826-.01l1.591-9.405c6.712-2.917 5.346-10.162 5.346-10.162l-3.734-1.351a8.97 8.97 0 01-4.417-3.541z" fill="#514034"/><path d="M204.458 288l4.916-8.676L210 277h-65l.626 2.324 4.039 8.079 54.793.597z" fill="#B7B9BB"/><path d="M210 277h-65c0 2.207 2.964 4 5.521 4h54.845c2.557 0 4.634-1.784 4.634-4z" fill="#B7B9BB"/><path d="M206.9 253h-58.816c-1.888 0-3.339 1.67-3.046 3.514l3.756 23.735c.428 2.731 2.817 4.751 5.624 4.751h46.169c2.807 0 5.186-2.02 5.624-4.751l3.756-23.735c.272-1.844-1.179-3.514-3.067-3.514z" fill="#FDFDFD"/><path d="M205 285v.343c0 2.023-1.469 3.657-3.287 3.657h-48.426c-1.818 0-3.287-1.634-3.287-3.657V285h55z" fill="#B7B9BB"/><path d="M206.915 254h-58.83c-1.889 0-3.34 1.67-3.047 3.514l4.195 26.548a2.314 2.314 0 002.296 1.938h51.942a2.314 2.314 0 002.296-1.938l4.195-26.548c.293-1.844-1.158-3.514-3.047-3.514z" fill="#C0C3C4"/><path d="M181 271c0 1.654-1.565 3-3.5 3s-3.5-1.346-3.5-3 1.565-3 3.5-3c1.925.011 3.5 1.346 3.5 3z" fill="#FDFDFD"/><path d="M195.434 336l-2.325 8.956a3.323 3.323 0 001.158 3.46l9.421 7.353a34.418 34.418 0 0011.993 6.044 5.287 5.287 0 005.028-1.265c1.649-1.551 1.731-4.199.174-5.855l-11.285-12.026L195.434 336z" fill="#252E33"/><path d="M216.337 359.351a34.594 34.594 0 01-11.993-5.891L193.212 345l-.103.391a3.19 3.19 0 001.158 3.371l9.422 7.166a34.773 34.773 0 0011.992 5.89 5.39 5.39 0 005.029-1.233 3.95 3.95 0 001.28-3.208c-.174.267-.881 2.776-5.653 1.974z" fill="#D1D3D4"/><path d="M217.692 278.246c-3.854-1.022-7.813 1.238-8.85 5.036l-1.927 7.112L194 337.963l4.671 4.624 14.423.413 12.915-47.57.565-2.064c1.781-6.585-2.189-13.355-8.882-15.12z" fill="#84CD3B"/><path opacity=".07" d="M207 291l-13 47.393 4.702 4.607L207 291z" fill="#000"/><path d="M159.511 336l2.381 8.989a3.298 3.298 0 01-1.206 3.469l-9.758 7.339a35.86 35.86 0 01-12.403 6.018 5.583 5.583 0 01-5.196-1.28 4.09 4.09 0 01-.17-5.869l11.705-12.025L159.511 336z" fill="#252E33"/><path d="M137.853 359.341a36.136 36.136 0 0012.406-5.875L161.786 345l.106.392a3.179 3.179 0 01-1.206 3.387l-9.76 7.165a36.223 36.223 0 01-12.406 5.875c-1.842.475-3.8 0-5.197-1.249a3.943 3.943 0 01-1.313-3.222c.18.269.9 2.788 5.843 1.993z" fill="#D1D3D4"/><path d="M137.374 278.241c3.871-1.017 7.847 1.278 8.878 5.144l1.914 7.23L161 338.939l-4.702 4.684-14.485.377-12.834-48.324-.557-2.096c-1.778-6.716 2.23-13.569 8.952-15.339z" fill="#84CD3B"/><path opacity=".07" d="M148 291l13 47.416-4.774 4.584L148 291z" fill="#000"/><path d="M200.737 84.85c0 13.991-25.585 52.325-25.585 52.325s-25.573-38.334-25.573-52.326c0-13.968 11.439-25.312 25.573-25.312 14.134.012 25.585 11.345 25.585 25.312z" fill="#4A8DC9"/><path d="M181.153 85.34a7.082 7.082 0 002.216-5.15 7.116 7.116 0 00-7.115-7.116V71.78h-3.234v1.294h-1.941V71.78h-3.234v1.294h-1.94v3.234h1.94v20.054h-1.94v3.234h1.94v1.294h3.234v-1.294h1.941v1.294h3.234v-1.294h.647c4.276 0 7.761-3.486 7.761-7.762a7.766 7.766 0 00-3.509-6.493zm-10.062-9.032h5.175a3.88 3.88 0 013.881 3.882 3.88 3.88 0 01-3.881 3.881h-5.175v-7.763zm5.822 20.054h-5.822v-9.056h5.822a4.524 4.524 0 014.527 4.528c-.012 2.491-2.036 4.528-4.527 4.528z" fill="#E5E8EC"/><path d="M340.446 148.352l6.636-10.086 11.463.227-2.983 10.087-4.348 7.786-10.768-8.014z" fill="#FAC590"/><path d="M367.899 126.322a4.335 4.335 0 01-4.575 4.061l-16.314-.982c-2.384-.144-4.192-2.192-4.061-4.576a4.327 4.327 0 014.576-4.061l16.302.982a4.306 4.306 0 014.072 4.576z" fill="#163F59"/><path d="M364.462 133.617a7.99 7.99 0 01-8.457 7.499l-8.504-.515a7.989 7.989 0 01-7.498-8.457c.263-4.409 4.048-7.775 8.456-7.499l8.504.515a7.99 7.99 0 017.499 8.457z" fill="#163F59"/><path d="M370.091 146.782l1.509-24.941c.24-3.977-3.222-.191-7.198-.431l-3.833-.227a7.208 7.208 0 00-7.63 6.756l-1.066 17.753 18.218 1.09z" fill="#FAC590"/><path d="M355.778 133.689a3.161 3.161 0 11-6.313-.383 3.165 3.165 0 013.354-2.971 3.172 3.172 0 012.959 3.354zm12.708 5.152c-.06 1.006.683 1.88 1.653 1.94l1.473.096c.982.06 1.821-.719 1.881-1.725 0 0-2.659-9.655-3.641-9.727 0 0-.851.778-.911 1.785l-.455 7.631z" fill="#FAC590"/><path d="M360.102 144.806c-7.199-.431-7.81-2.683-7.87-5.223 0 0-2.3 6.205-2.419 8.242l-.144 2.264c-.264 4.384 4.037 8.206 9.594 8.541l10.074.611.67-11.189.156-2.647-10.061-.599z" fill="#163F59"/><path d="M370.45 140.781l-5.749-.348a4.82 4.82 0 00-5.091 4.516c-.023.42.024.815.096 1.21l10.385.623.359-6.001z" fill="#163F59"/><path d="M362.713 145.381l-.096 1.593a.81.81 0 00.743.851l4.671.275a.811.811 0 00.85-.755l.096-1.605-6.264-.359z" fill="#FAC590"/><path d="M369.384 117.254l-14.756-.886a2.866 2.866 0 00-3.043 2.707l-.347 5.762 17.643 1.066.503-8.649z" fill="#163F59"/><path d="M378.272 122.105a4.356 4.356 0 01-4.611 4.085l-9.99-.599a4.343 4.343 0 01-4.084-4.6 4.356 4.356 0 014.611-4.085l9.99.599a4.346 4.346 0 014.084 4.6zm-25.193.758l-.629 10.499 3.982.239.628-10.499-3.981-.239z" fill="#163F59"/><path d="M354.583 118.422l-.741 12.364 11.741.704.741-12.365-11.741-.703z" fill="#163F59"/><path d="M356.58 131.102a5.96 5.96 0 016.3-5.583l3.067.18c3.282.203 4.875 2.971 4.683 6.241-.204 3.282-3.018 5.786-6.3 5.582l-2.168-.131a5.926 5.926 0 01-5.582-6.289zm35.502 75.445c1.174.24 6.073 2.684 6.073 2.684s-.239 2.707-.335 3.474c-.096.778-1.533-1.534-2.192.85-.659 2.372.395 4.732.395 4.732l4.156 2.731 2.324.288 1.953-1.198.407-4.445-.755-7.547-7.785-5.714-4.863.803.622 3.342z" fill="#FAC590"/><path d="M395.269 198.306l8.588 6.001s1.904 3.007 3.365 5.511c1.462 2.492 1.857 4.169 1.857 4.169s-.755 4.684-1.605 5.546c-.85.875-3.078-.192-3.078-.192l-4.54.372s-1.593-.563-.251-2.073c1.341-1.509 4.443-1.126 4.443-1.126s-.119-2.467-.048-3.426c.072-.97-3.593-5.858-3.593-5.858l-6.935-3.534 1.797-5.39z" fill="#FAC590"/><path d="M370.99 179.582l25.584 17.107-4.36 11.236-18.853-3.522-2.371-24.821z" fill="#376BA5"/><path d="M304.093 354.792s-5.689 1.665-8.061 1.869c-1.976.168-5.39-1.294-7.067-2.168-1.533-.803-3.964-2.169-4.779-4.109-1.138-2.755-2.887-11.56-2.887-11.56l-1.653 1.006-2.443-6.109s3.713-7.895 6.264-8.134c3.426-.312 10.229 9.2 10.229 9.2l.599 10.781 3.606 5.63s3.665.923 4.647 1.306c.946.371 1.545 2.288 1.545 2.288zm86.516-6.097l5.306 10.589 9.283-3.857-.443-2.887 4.42-1.449 6.18-.959 18.111-13.968s-.587-1.952-1.533-2.156c-2.707-.563-10.397 4.564-10.397 4.564l-14.577 1.929-16.35 8.194z" fill="#081832"/><path d="M510.22 256.418h-55.386v36.932h55.386v-36.932z" fill="url(#paint0_linear)"/><path d="M510.22 256.418h-20.375v36.932h20.375v-36.932z" fill="#EA8E45"/><path d="M522.473 219.917h-55.385v36.932h55.385v-36.932z" fill="url(#paint1_linear)"/><path d="M522.485 219.917h-20.374v36.932h20.374v-36.932z" fill="#EA8E45"/><path d="M528.63 208.188h-20.375l-6.144 11.728h20.362l6.157-11.728z" fill="url(#paint2_linear)"/><path d="M461.817 208.201h20.375l6.156 11.716h-20.374l-6.157-11.716zm27.214 34.944l4.324 4.288 4.324-4.288h-8.648zm5.857-6.385h-3.198v6.385h3.198v-6.385zm-15.751 6.385l4.324 4.288 4.324-4.288h-8.648zm5.858-6.385h-3.199v6.385h3.199v-6.385zm12.385 12.027h-18.482v3.199h18.482v-3.199z" fill="#EA8E45"/><path d="M550.07 256.418h-55.385v36.932h55.385v-36.932z" fill="url(#paint3_linear)"/><path d="M550.07 256.418h-20.374v36.932h20.374v-36.932z" fill="#EA8E45"/><path d="M345.824 264.911l-7.223 18.053-41.886 55.62-14.002-13.118 34.939-54.05 5.786-44.791 22.386 38.286z" fill="#64A9DB"/><path d="M342.937 204.236s25.274 74.403 33.227 91.738c7.941 17.334 35.394 43.341 35.394 43.341l-25.273 12.279s-35.394-57.789-43.336-78.01c-7.941-20.221-23.836-41.892-23.836-41.892s-15.894-10.11-10.828-31.062c5.043-20.952 34.652 3.606 34.652 3.606z" fill="#64A9DB"/><path d="M360.533 161.206l-11.151 58.351-41.791-21.766 28.148-51.823c-.012 0 9.51-9.991 24.794 15.238z" fill="#376BA5"/><path d="M359.934 174.18s2.719 31.805-27.932 29.253c-1.653-.132-3.546-2.252-3.546-2.252l.887-4.444s27.369 3.031 30.591-22.557z" fill="#EC7F50"/><path d="M545.878 340.872a9.22 9.22 0 01-9.223 9.224c-5.091 0-9.223-4.133-9.223-9.224 0-5.092 4.132-9.225 9.223-9.225 5.09.012 9.223 4.133 9.223 9.225z" fill="#484F59"/><path d="M542.189 340.872a5.537 5.537 0 01-5.534 5.535 5.537 5.537 0 01-5.534-5.535 5.536 5.536 0 015.534-5.534 5.537 5.537 0 015.534 5.534z" fill="#B7BEC0"/><path d="M541.578 340.872a4.913 4.913 0 01-4.923 4.912 4.91 4.91 0 01-4.911-4.912 4.91 4.91 0 014.911-4.911 4.92 4.92 0 014.923 4.911z" fill="#CDD5D7"/><path d="M538.751 338.776c-.036 2.899-1.653 3.522-3.605 1.377l-7.283-7.966c-1.952-2.144-1.186-3.881 1.713-3.881h4.037a5.212 5.212 0 015.21 5.271l-.072 5.199z" fill="#CDD5D7"/><path d="M528.51 332.918c.311-.06.659-.096 1.054-.096h4.037c2.73 0 4.946 2.12 5.162 4.792l.048-4.037a5.212 5.212 0 00-5.21-5.271h-4.037c-2.899 0-3.665 1.749-1.713 3.881l.659.731z" fill="#B7BEC0"/><path d="M475.412 340.872c0 5.091-4.132 9.224-9.223 9.224-5.09 0-9.223-4.133-9.223-9.224 0-5.092 4.133-9.225 9.223-9.225 5.091.012 9.223 4.133 9.223 9.225z" fill="#484F59"/><path d="M471.723 340.872a5.537 5.537 0 01-5.534 5.535 5.536 5.536 0 01-5.533-5.535 5.536 5.536 0 015.533-5.534 5.536 5.536 0 015.534 5.534z" fill="#B7BEC0"/><path d="M471.1 340.872a4.91 4.91 0 01-4.911 4.912 4.92 4.92 0 01-4.923-4.912 4.918 4.918 0 019.834 0z" fill="#CDD5D7"/><path d="M468.273 338.776c-.035 2.899-1.652 3.522-3.605 1.377l-7.282-7.966c-1.953-2.144-1.186-3.881 1.712-3.881h4.037a5.212 5.212 0 015.21 5.271l-.072 5.199z" fill="#CDD5D7"/><path d="M458.044 332.918c.312-.06.659-.096 1.054-.096h4.037c2.731 0 4.947 2.12 5.162 4.792l.048-4.037a5.212 5.212 0 00-5.21-5.271h-4.037c-2.898 0-3.665 1.749-1.712 3.881l.658.731z" fill="#B7BEC0"/><path d="M438.513 252.904l-.567 5.156 117.571 12.941.568-5.156-117.572-12.941zm8.979 22.09l-.317 5.177 108.408 6.648.318-5.177-108.409-6.648z" fill="#CDD5D7"/><path d="M548.154 330.354h-.024l-88.732-.863c-2.132 0-5.235-.275-7.151-2.647-2.372-2.935-1.605-7.643-.539-12.614 1.701-7.895 2.719-12.95 2.719-12.95a2.594 2.594 0 012.563-2.085c16.53.144 48.846.348 52.858.012a2.595 2.595 0 012.803 2.372 2.6 2.6 0 01-2.371 2.803c-4.672.384-41.719.108-51.194.024a1306.97 1306.97 0 01-2.299 10.914c-.408 1.916-1.51 7.008-.503 8.253.383.468 1.497.719 3.138.719l88.744.863a2.597 2.597 0 012.575 2.623 2.597 2.597 0 01-2.587 2.576z" fill="#B7BEC0"/><path d="M459.05 327.791c-1.94 0-4.683-.228-6.288-2.216-2.048-2.552-1.317-6.996-.299-11.728 1.7-7.906 2.743-13.081 2.755-13.129a1.383 1.383 0 011.353-1.114c10.505.095 25.848.191 37.443.191 9.235 0 14.685-.06 16.206-.191h.012c.826 0 1.425.551 1.485 1.269.036.372-.084.731-.323 1.007a1.39 1.39 0 01-.935.491c-1.593.132-7.174.203-16.625.203-12.684 0-28.783-.119-35.107-.179l-1.03-.012-.204.994a1144.2 1144.2 0 01-2.323 11.045c-1.198 5.522-1.258 8.158-.252 9.404.647.802 2 1.186 4.144 1.186l89.846.874a1.38 1.38 0 011.366 1.402 1.386 1.386 0 01-1.39 1.365l-89.834-.862zm7.463-30.272a2.621 2.621 0 01-2.492-1.857l-16.481-55.093a2.598 2.598 0 011.749-3.234 2.599 2.599 0 013.234 1.749l16.481 55.093a2.599 2.599 0 01-2.491 3.342zm12.792-.001a2.59 2.59 0 01-2.515-1.976l-13.14-52.889a2.602 2.602 0 011.892-3.15 2.603 2.603 0 013.151 1.892l13.139 52.889a2.59 2.59 0 01-1.892 3.139 1.99 1.99 0 01-.635.095zm12.804.001a2.6 2.6 0 01-2.551-2.109l-9.786-50.672a2.601 2.601 0 012.06-3.043 2.601 2.601 0 013.043 2.06l9.786 50.673a2.608 2.608 0 01-2.552 3.091zm12.793 0a2.605 2.605 0 01-2.576-2.252l-6.432-48.457a2.605 2.605 0 012.228-2.923c1.414-.18 2.731.815 2.911 2.228l6.432 48.469a2.587 2.587 0 01-2.228 2.911c-.096.024-.216.024-.335.024zm12.804-.001c-1.354 0-2.503-1.054-2.587-2.419l-3.079-46.253a2.601 2.601 0 012.42-2.767 2.608 2.608 0 012.767 2.42l3.078 46.252a2.6 2.6 0 01-2.419 2.767h-.18zm12.804 0h-.012a2.587 2.587 0 01-2.575-2.611l.264-44.036a2.61 2.61 0 012.599-2.588h.012a2.595 2.595 0 012.575 2.612l-.264 44.036a2.601 2.601 0 01-2.599 2.587zm12.805.001c-.072 0-.144 0-.228-.012a2.589 2.589 0 01-2.36-2.815l3.618-41.82c.119-1.426 1.389-2.492 2.802-2.36a2.58 2.58 0 012.36 2.815l-3.617 41.832c-.108 1.342-1.246 2.36-2.575 2.36z" fill="#CDD5D7"/><path d="M552.478 298.765H455.11a2.611 2.611 0 01-2.408-1.617l-27.261-67.084s-1.318-2.516-7.498-4.577c-7.834-2.611-17.165-6.84-17.572-7.019a2.59 2.59 0 01-1.282-3.438 2.605 2.605 0 013.438-1.294c.096.048 9.486 4.3 17.056 6.828 8.529 2.839 10.409 6.84 10.697 7.607l2.575 6.349 126.881 16.663c.695.096 1.33.455 1.737 1.03.419.563.599 1.27.479 1.965l-6.923 42.419a2.577 2.577 0 01-2.551 2.168zm-95.619-5.199h93.415l6.132-37.591-121.299-15.933 21.752 53.524z" fill="#CDD5D7"/><path d="M552.478 298.765H455.11a2.611 2.611 0 01-2.408-1.617l-27.261-67.084s-1.318-2.516-7.498-4.577c-7.834-2.611-17.165-6.84-17.572-7.019a2.59 2.59 0 01-1.282-3.438 2.605 2.605 0 013.438-1.294c.096.048 9.486 4.3 17.056 6.828 8.529 2.839 10.409 6.84 10.697 7.607l2.575 6.349 126.881 16.663c.695.096 1.33.455 1.737 1.03.419.563.599 1.27.479 1.965l-6.923 42.419a2.577 2.577 0 01-2.551 2.168zm-95.619-5.199h93.415l6.132-37.591-121.299-15.933 21.752 53.524z" fill="#CDD5D7"/><path d="M551.603 291.697l6.145-37.604-121.3-15.92.887 2.168 119.071 15.633-5.833 35.723h1.03z" fill="#B7BEC0"/><path d="M553.819 296.884h-97.368a2.61 2.61 0 01-2.407-1.617l-27.262-67.084s-1.317-2.516-7.51-4.577c-7.821-2.611-17.164-6.84-17.559-7.019a2.586 2.586 0 01-1.486-2.768 2.622 2.622 0 00-1.149 1.21 2.596 2.596 0 001.281 3.438c.395.18 9.738 4.421 17.572 7.02 6.18 2.061 7.498 4.576 7.498 4.576l27.261 67.085a2.582 2.582 0 002.408 1.617h97.368a2.6 2.6 0 002.563-2.181l.012-.059c-.371.215-.779.359-1.222.359z" fill="#B7BEC0"/><path d="M456.451 295.542a.965.965 0 01-.91-.611l-27.669-68.09h-.287c-.947-1.078-3.138-2.947-7.786-4.492-7.785-2.6-17.008-6.781-17.404-6.96a1.014 1.014 0 01-.515-.551.97.97 0 01.024-.755.99.99 0 01.899-.575c.143 0 .275.024.407.084.096.036 9.582 4.336 17.212 6.888 8.001 2.659 9.546 6.241 9.702 6.648l2.947 7.26 127.803 16.783c.264.036.503.18.671.395a.985.985 0 01.18.743l-6.924 42.419a.988.988 0 01-.97.826h-97.38v-.012zm.671-1.976h95.859l6.623-40.574-125.683-16.508 23.201 57.082z" fill="#E5E8EC"/><path d="M419.847 219.629l-16.817-6.876a3.549 3.549 0 00-4.623 1.941 3.55 3.55 0 001.94 4.624l17.248 7.056 2.252-6.745z" fill="#484F59"/><path d="M479.82 295.242a.99.99 0 01-.97-.754l-3.773-15.19-11.906-.731 4.599 15.382a1.022 1.022 0 01-.67 1.258 1.233 1.233 0 01-.288.035c-.443 0-.838-.299-.958-.718l-4.815-16.101-12.146-.742.12-2.001 11.415.695-5.797-19.395-15.045-1.653.216-2 14.182 1.557-4.899-16.364a1 1 0 01.671-1.246c.095-.023.191-.047.287-.047.431 0 .827.299.958.718l5.139 17.179 13.283 1.461-3.94-15.86a1.034 1.034 0 01.107-.755c.144-.228.36-.384.623-.455a.914.914 0 01.252-.036c.455 0 .862.311.97.766l4.12 16.58 13.308 1.461-2.971-15.369a1.004 1.004 0 01.803-1.174c.06-.012.119-.012.191-.012a.99.99 0 01.983.814l3.09 15.981 13.319 1.461-1.976-14.866a1 1 0 01.862-1.126h.012c.623 0 1.042.371 1.114.862l2.036 15.358 13.344 1.473-.959-14.387a1.03 1.03 0 01.252-.731.968.968 0 01.695-.335c.587 0 1.03.407 1.066.934l.982 14.735 13.343 1.461.084-13.896c0-.551.455-.994 1.006-.994a1.014 1.014 0 011.006 1.018l-.083 14.112 13.343 1.474 1.162-13.417c.048-.515.479-.923.994-.923.359.024.611.156.778.36a.99.99 0 01.228.73l-1.162 13.465 7.666.851-.228 2-7.618-.838-1.245 14.399 8.959.551-.12 2-9.007-.551-.922 10.638a1.012 1.012 0 01-.994.922c-.36-.024-.611-.155-.779-.359a1.01 1.01 0 01-.228-.731l.923-10.589-11.858-.731-.072 11.404c0 .551-.455.994-1.006.994a1.004 1.004 0 01-1.006-1.006l.071-11.512-11.882-.731.815 12.183a.978.978 0 01-.252.731.958.958 0 01-.682.335c-.587 0-1.03-.407-1.066-.934l-.827-12.446-11.906-.731 1.725 12.973a1 1 0 01-.862 1.126h-.024c-.623 0-1.042-.371-1.102-.862l-1.773-13.369-11.918-.731 2.659 13.777a1.003 1.003 0 01-.79 1.173 1.05 1.05 0 01-.192.024c-.479 0-.898-.347-.982-.814l-2.755-14.28-11.918-.73 3.617 14.579a.996.996 0 01-.731 1.21c-.107.011-.191.023-.275.023zm53.134-14.423l12.013.743 1.258-14.495-13.175-1.449-.096 15.201zm-14.05-.862l12.037.743.096-15.31-13.199-1.45 1.066 16.017zm-14.062-.863l12.037.743-1.078-16.124-13.199-1.45 2.24 16.831zm-14.074-.862l12.037.743-2.251-16.939-13.2-1.45 3.414 17.646zm-14.098-.863l12.026.743-3.426-17.753-13.188-1.462 4.588 18.472zm-14.11-.862l12.014.731-4.612-18.58-13.175-1.45 5.773 19.299z" fill="#E5E8EC"/><path d="M374.499 186.458s-8.983-18.807-12.481-24.354c-2.443-3.881-10.588-12.614-10.588-12.614s-5.762 3.39-6.876 6.876c-3.21 10.087 2.444 21.24 2.444 21.24l26.351 26.798 5.414-5.715-4.264-12.231z" fill="#376BA5"/><path d="M344.566 141.248l-3.21 2.971 15.128 11.464.228-4.588-12.146-9.847z" fill="#B0BFDE"/><path d="M37.764 339.655H25.5l-4.942 9.378-5.173.829h-1.627v1.028h7.583c1.043 0 2.01-.568 2.517-1.473a15.885 15.885 0 0113.907-8.196v-1.566z" fill="#376BA5"/><path d="M81.665 221.506l-17.238-13.291-20.385 4.758s-6.754 37.833-6.677 50.817c.015 1.673-.138 4.16-.368 5.817a13.54 13.54 0 00.399 5.633c.66 2.333-6.432 49.498-9.61 57.417-1.135 2.855-7.935 13.292-7.935 13.292l-3.807.675c-.737.123-1.366.706-1.428 1.458a1.631 1.631 0 001.612 1.796h3.853c1.35 0 2.64-.614 3.5-1.673l2.67-3.285a14.639 14.639 0 0110.116-5.371 3.531 3.531 0 001.735-3.039 6.75 6.75 0 00-1.167-3.807c-.107-.169-.23-.353-.322-.568-1.136-2.287-.921-5.003.307-7.244 3.438-6.277 11.036-23.805 12.786-31.356 1.228-5.326-.276-11.48 1.72-18.448 1.52-6.769 6.677-24.803 8.718-38.647l2.61 26.629c.63 4.006 1.044 12.033 1.98 15.808.952 3.761-.829 17.068.184 26.276 1.351 12.356 2.364 30.129 1.72 35.654-.323 2.839-1.305 10.268-1.305 10.268l.86 1.826h6.968l.86-1.028a2.24 2.24 0 00.491-1.796s-1.566-6.124-1.612-9.746c-.2-15.133 4.959-36.421 5.28-43.327.2-4.267.216-11.266-.767-16.761-.245-1.366-.26-3.591 0-4.957 3.577-19.507 4.252-53.78 4.252-53.78z" fill="#E6B289"/><path opacity=".5" d="M50.934 277.05c-1.243 6.154-.153 11.649-1.258 16.453-1.735 7.551-9.349 25.094-12.787 31.356a8.873 8.873 0 00-.813 2.118c2.072-12.355 8.043-18.725 12.034-34.902 1.182-4.788.936-7.443.936-14.273 0-1.673 10.638-59.766 10.638-59.766s7.368 60.395 7.629 61.792c.338 1.933-1.72 12.6-.86 22.055 2.61 28.424-.061 40.718.154 38.877.645-5.526-.353-23.314-1.72-35.654-1.012-9.209.768-22.516-.183-26.276-.952-3.76-1.351-11.787-1.98-15.809l-2.61-26.629c-2.042 13.86-7.2 31.894-8.719 38.647a21.07 21.07 0 00-.46 2.011z" fill="#D89C73"/><path d="M66.131 354.098h7.276c.675 0 1.243-.553 1.243-1.244h-9.747a1.216 1.216 0 001.228 1.244z" fill="#376BA5"/><path opacity=".05" d="M65.302 351.043l.86 1.827h6.969l.307-.369a1.095 1.095 0 00-.645-1.78L68.787 350a3.542 3.542 0 00-2.303.383l-1.182.66z" fill="#000"/><path d="M74.236 348.005a.486.486 0 01-.307-.123c-.967-1.013-5.987-3.131-7.844-3.867a.424.424 0 01-.261-.43.409.409 0 01.338-.369c.046-.015 4.82-.936 6.34-3.161a.417.417 0 01.583-.108.417.417 0 01.107.584c-1.197 1.749-3.96 2.747-5.587 3.192 2.056.844 5.956 2.548 6.938 3.576a.432.432 0 01-.016.599.487.487 0 01-.291.107zm-8.934 5.28a.413.413 0 01-.414-.415c0-.092.015-2.148 1.473-3.53.906-.859 2.15-1.243 3.7-1.151 1.596.092 2.809.614 3.607 1.566 1.151 1.366.982 3.085.982 3.161a.415.415 0 01-.46.369.415.415 0 01-.368-.461c0-.015.138-1.458-.783-2.532-.645-.752-1.658-1.182-3.024-1.259-1.305-.076-2.349.231-3.07.921-1.198 1.121-1.213 2.901-1.213 2.916a.436.436 0 01-.43.415z" fill="#376BA5"/><path d="M17.149 160.82l1.381-8.15-.844-8.672a3.01 3.01 0 00-2.287 2.563l-.414 3.515-2.733.399-11.497-8.533a1.115 1.115 0 00-1.151-.108 1.097 1.097 0 00-.184 1.842l5.449 4.297-1.52-.782c-.767-.384-1.688.076-1.811.921a1.25 1.25 0 00.553 1.243l1.197.798-.138.645c-.184.798.184 1.626.89 2.056l.69.415a1.913 1.913 0 00.784 2.332l.644.4a12.055 12.055 0 006.217 6.507l.937.43 3.837-2.118z" fill="#E6B289"/><path d="M25.131 171.717l-7.875-12.279-6.447 1.934 8.151 15.21 6.171-4.865z" fill="#E6B289"/><path d="M51.38 141.925s-11.083-.368-13.954 10.33l-8.672 22.331-7.292-9.393-6.477 6.492 10.008 15.103c3.546 3.1 7.214 3.208 10.515-.154l5.833-9.915 1.688 3.208c1.136 12.094.23 23.329-1.596 36.099L33.91 259.43s23.056 5.51 48.568 1.09c3.377-20.444-.522-52.552-2.825-58.706-.614-1.643-1.258-3.254-1.857-4.85a28.322 28.322 0 01-.476-18.403l4.697-14.918 2.702-12.401s-4.528-4.528-11.405-7.107c-6.846-2.593-21.935-2.21-21.935-2.21z" fill="#4A8DC9"/><path opacity=".05" d="M80.07 162.983l1.32 37.127s-.722 2.471-4.498 3.976c-3.623 1.442-7.522-1.351-7.491-5.234.184-27.289 5.203-52.69 3.868-54.087-1.336-1.412-.967 29.116-8.228 35.27-1.289 9.224-2.364 19.369-2.87 29.3-2.579 17.865-.522 26.92.368 31.033a5.236 5.236 0 004.544 4.114c4.144.445 12.127.798 16.747-2.241 3.116-2.057 6.493-4.282 8.412-8.871 1.366-4.666-6.831-23.437-7.138-28.763-1.105-19.507-1.29-33.904-5.035-41.624z" fill="#000"/><path d="M80.069 162.984l1.443 40.55s-4.544 11.327-13.14 9.316c-.675-29.56 6.34-66.58 4.897-68.069-1.934-2.026-7.767 32.891-9.44 65.046-4.774 33.09 2.18 33.228 2.18 33.228s19.724 5.817 26.217-9.684c1.366-4.666-6.83-23.437-7.138-28.763-1.09-19.507-1.274-33.904-5.02-41.624z" fill="#DF6631"/><path opacity=".05" d="M91.55 226.862c-1.196-4.789-3.391-10.959-4.896-15.809-1.197-.859-2.67-1.258-4.497-.921-2.472.461-4.59.798-6.386 1.059-1.98 1.458-4.451 2.349-7.414 1.658 0-.292 0-.583-.015-.875h-.016s-6.77 11.189-4.681 17.083c12.11 6.001 26.08-.706 27.906-2.195z" fill="#000"/><path d="M68.372 210.01s-5.572 12.478-3.469 18.371c16.087 5.096 26.955-4.711 26.955-4.711s-.184-18.234-9.686-16.484c-9.502 1.765-13.8 2.824-13.8 2.824z" fill="#DF6631"/><path d="M85.242 196.965L73.238 207.11c-1.35.077-4.068-.476-4.897-.015-.061 1.703-.644 4.527-2.425 5.909l-3.193 1.78c-1.796.89-1.995 1.136-1.704 2.287l4.99-2.088 2.179-1.534-2.425 2.379-2.733 1.565c-.49.276-.69.89-.43 1.397l.338.69c.4.231.706.384.706.384l4.206-.368 4.39-2.18s1.474-.506 4.897-6.001l12.357-9.209-4.252-5.141z" fill="#E6B289"/><path d="M89.478 162.078c.922 4.834 8.244 29.422 8.244 29.422a6.62 6.62 0 01-1.935 6.845l-7.429 6.185-5.173-6.477 5.587-5.31s-4.758-10.068-7.629-16.223c-4.528-9.669-8.58-17.681-7.844-25.37l4.513-2.579c6.187-.614 10.055 5.142 11.666 13.507z" fill="#4A8DC9"/><path d="M58.241 101.039s-12.786-5.94-18.19 7.52c-4.605 11.496 4.344 35.562 15.488 34.104 17.193-2.256 2.702-41.624 2.702-41.624z" fill="#38281A"/><path d="M54.235 132.319l.337 9.24-3.192.353s-3.101 6.937-3.746 11.25c-.69 4.635 13.539 6.768 18.359-7.981 4.82-14.75-4.59-18.725-4.59-18.725l-7.168 5.863z" fill="#E6B289"/><path d="M61.419 126.471l-7.169 5.847.307 8.166c.061-.031.138-.062.2-.108l11.251-6.584-.169-2.456c-2.041-3.238-4.42-4.865-4.42-4.865z" fill="#D89C73"/><path d="M44.319 116.14c.813 2.624-1.674 7.045-.906 9.546.43 1.397 3.162 7.03 5.296 9.977.936 1.304 2.195 2.532 3.807 2.609a5.206 5.206 0 002.9-.722l10.776-6.308-1.274-18.54-17.284-6.615-2.087 2.271a6.648 6.648 0 00-1.627 5.664l.399 2.118z" fill="#E6B289"/><path d="M47.634 106.088s2.44 6.308 8.228 8.227c4.528 1.504 4.62 8.211 8.38 7.214 1.567 10.191-2.731 14.197-.107 23.666 2.625 9.47.323 19.999.323 19.999s14.981-8.181 15.58-31.51c.415-16.238-2.256-22.331-7.291-28.363-4.667-5.587-12.756-7.106-18.205-5.372-3.193 1.351-4.774 2.548-6.908 6.139z" fill="#473522"/><path d="M63.475 122.448c.277-.952.998-1.75 1.965-1.98.43-.108.921-.108 1.443.138 1.627.752-.169 5.894-2.686 6.293-1.873.291-1.213-2.794-.722-4.451z" fill="#E6B289"/><path d="M66.085 127.207c-.184.66-.875 1.028-1.535.844-.66-.184-1.028-.875-.844-1.535.184-.659.875-1.028 1.535-.844.644.2 1.028.875.844 1.535z" fill="#fff"/><path d="M46.575 119.35a.88.88 0 01.077.199s-.016-.077-.077-.199z" fill="#D89C73"/><path d="M3.917 140.207c-.046.015-.077.046-.123.076l-.076.046c-.568.4-.799 1.121-.522 1.934l4.82 14.213c.399 1.181 1.704 2.087 2.9 2.041l5.204-.246c1.29-.061 1.766-.89 1.766-.89l-1.12-1.412-4.713-13.89c-.4-1.182-1.704-2.087-2.901-2.041l-4.13.199-.43-.537.077.092-.752.415z" fill="#BD6A9E"/><path d="M5.483 139.424l5.204-.245c1.197-.062 2.502.859 2.9 2.041l4.82 14.212c.4 1.182-.245 2.18-1.442 2.241l-5.204.246c-1.197.061-2.502-.86-2.901-2.042l-4.82-14.212c-.399-1.182.246-2.195 1.443-2.241z" fill="#3C3C3B"/><path d="M9.55 155.493l8.228-.368-4.666-13.583-7.997.368 4.436 13.583z" fill="#fff"/><path d="M4.853 148.004l1.735 1.09a2.8 2.8 0 011.274 2.854l-.015.062.798.43c.384.214.598.629.552 1.074a1.061 1.061 0 01-1.412.875l-3.085-1.09.153-5.295z" fill="#E6B289"/><path opacity=".05" d="M38.808 181.033l2.533-4.313a20.488 20.488 0 01-1.32-13.276l1.32-5.541-2.057 4.467a23.616 23.616 0 00-.476 18.663z" fill="#000"/><path d="M33.896 350.875h1.397v-4.512a6.58 6.58 0 011.903-4.62l.568-.568-2.026-.782-4.313.782.614.63a6.481 6.481 0 011.857 4.558v4.512zm-12.111-.599a.414.414 0 01-.369-.215l-2.47-4.589a.4.4 0 01.014-.414.432.432 0 01.369-.2l5.817.184-2.195-5.74a.434.434 0 01.108-.46.395.395 0 01.46-.062l6.279 3.039.798-6.124a.407.407 0 01.169-.276l5.618-4.175a.419.419 0 01.491.676l-5.48 4.067-.844 6.523a.428.428 0 01-.215.322.476.476 0 01-.384.016l-5.848-2.84 2.041 5.341a.457.457 0 01-.046.399.381.381 0 01-.353.169l-5.71-.184 2.134 3.944c.107.2.03.461-.17.568-.076.016-.137.031-.214.031z" fill="#376BA5"/><path d="M36.628 340.332a.465.465 0 01-.245-.077l-5.542-4.113-4.59-1.013a.416.416 0 01-.322-.491.425.425 0 01.507-.323l4.681 1.029c.062.015.108.03.154.077l5.618 4.174c.184.138.23.399.092.583a.525.525 0 01-.353.154z" fill="#376BA5"/><path opacity=".05" d="M64.796 180.695s-8.228-1.412-11.866-1.796c-3.638-.384-7.26.859-6.969 1.182 1.105.353 8.52 2.256 18.835.614z" fill="#000"/></g><defs><linearGradient id="paint0_linear" x1="440.557" y1="298.516" x2="517.046" y2="255.442" gradientUnits="userSpaceOnUse"><stop stop-color="#EA8E45"/><stop offset="1" stop-color="#F2D8CB"/></linearGradient><linearGradient id="paint1_linear" x1="452.822" y1="262.019" x2="529.309" y2="218.945" gradientUnits="userSpaceOnUse"><stop stop-color="#EA8E45"/><stop offset="1" stop-color="#F2D8CB"/></linearGradient><linearGradient id="paint2_linear" x1="502.106" y1="214.055" x2="528.632" y2="214.055" gradientUnits="userSpaceOnUse"><stop stop-color="#EA8E45"/><stop offset="1" stop-color="#F2D8CB"/></linearGradient><linearGradient id="paint3_linear" x1="480.413" y1="298.515" x2="556.9" y2="255.442" gradientUnits="userSpaceOnUse"><stop stop-color="#EA8E45"/><stop offset="1" stop-color="#F2D8CB"/></linearGradient><clipPath id="clip0"><path fill="#fff" d="M0 0h562v371H0z"/></clipPath></defs></svg>