<svg width="457" height="443" fill="none" xmlns="http://www.w3.org/2000/svg"><path d="M354.41 249.962c-10.164-13.375-31.791-22.732-50.369-28.059 0 0 8.779-1.814 25.632-25.553 8.426-11.7 12.633-21.611 12.633-36.976 0-12.379-1.864-18.084-5.58-27.253-3.715-9.168-8.829-16.661-15.328-22.48-6.5-5.818-24.788-18.714-50.344-21.094-7.948-.743-3.174-1.486-12.848-1.763V43.335h-45.583v43.31l-33.768.038V43.36h-46.842v43.373l-44.84.063v53.071h30.846l-.189 177.975H85.888v52.92h46.137v43.259h46.83v-43.259h33.768v43.259h45.583v-43.259h2.734c15.983 0 30.38-1.424 43.202-4.27 12.822-2.846 24.221-7.279 34.196-13.286 9.976-6.008 17.684-14.118 23.138-24.344 5.454-10.214 8.175-17.191 8.175-31.056-.013-20.931-5.089-34.47-15.241-47.844zM178.855 136.819h54.891c26.299 0 40.368 15.037 40.368 33.575 0 18.538-14.069 33.575-40.368 33.575h-54.891v-67.15zm60.823 183.958h-60.81v-74.405h60.81c29.146 0 44.739 16.649 44.739 37.203-.012 20.54-15.593 37.202-44.739 37.202z" fill="#4A8DC9"/><path d="M425.184 409.589h10.064l4.055 7.695 4.245.68h1.335v.844h-6.222c-.856 0-1.65-.466-2.066-1.209a13.034 13.034 0 00-11.411-6.726v-1.284z" fill="#376BA5"/><path d="M389.161 312.642l14.145-10.907 16.726 3.904s5.542 31.044 5.479 41.699c-.012 1.372.114 3.412.303 4.773.163 1.146.201 2.77-.328 4.622-.541 1.914 5.278 40.615 7.885 47.113.932 2.342 6.512 10.906 6.512 10.906l3.123.554c.605.101 1.121.58 1.172 1.197a1.339 1.339 0 01-1.323 1.473h-3.161a3.707 3.707 0 01-2.872-1.372l-2.191-2.696a12.017 12.017 0 00-8.301-4.407 2.897 2.897 0 01-1.423-2.494 5.53 5.53 0 01.957-3.123c.088-.139.189-.29.265-.466.932-1.877.755-4.106-.252-5.944-2.822-5.151-9.056-19.533-10.492-25.73-1.008-4.37.226-9.42-1.411-15.137-1.247-5.554-5.479-20.352-7.154-31.712l-2.141 21.851c-.517 3.287-.857 9.873-1.625 12.971-.781 3.086.68 14.005-.151 21.561-1.109 10.138-1.94 24.722-1.411 29.255.264 2.33 1.071 8.426 1.071 8.426l-.706 1.498h-5.718l-.705-.844a1.835 1.835 0 01-.404-1.473s1.285-5.025 1.323-7.997c.164-12.418-4.068-29.885-4.333-35.552-.164-3.502-.176-9.244.63-13.753.201-1.121.214-2.947 0-4.068-2.935-16.006-3.489-44.128-3.489-44.128z" fill="#E6B289"/><path opacity=".5" d="M414.377 358.218c1.02 5.05.126 9.559 1.033 13.501 1.423 6.196 7.671 20.591 10.492 25.729a7.33 7.33 0 01.668 1.738c-1.701-10.138-6.601-15.365-9.875-28.638-.97-3.93-.769-6.109-.769-11.713 0-1.372-8.728-49.04-8.728-49.04s-6.046 49.557-6.26 50.703c-.277 1.586 1.41 10.339.705 18.097-2.141 23.324.051 33.411-.126 31.9-.529-4.534.29-19.13 1.411-29.255.831-7.557-.63-18.475.151-21.561.781-3.085 1.108-9.672 1.625-12.972l2.141-21.85c1.675 11.372 5.907 26.17 7.154 31.711.189.693.303 1.209.378 1.65z" fill="#D89C73"/><path d="M401.908 421.439h-5.971c-.554 0-1.02-.453-1.02-1.02h7.998a.997.997 0 01-1.007 1.02z" fill="#376BA5"/><path opacity=".05" d="M402.588 418.933l-.706 1.499h-5.718l-.252-.302a.899.899 0 01.529-1.461l3.288-.592c.642-.113 1.31 0 1.889.315l.97.541z" fill="#000"/><path d="M395.257 416.44a.4.4 0 00.252-.101c.794-.831 4.912-2.569 6.436-3.173a.346.346 0 00.214-.353.333.333 0 00-.277-.302c-.037-.013-3.955-.768-5.202-2.594a.34.34 0 00-.478-.089.342.342 0 00-.088.479c.982 1.436 3.249 2.254 4.584 2.619-1.687.693-4.887 2.091-5.693 2.935a.353.353 0 00.013.491.4.4 0 00.239.088zm7.331 4.332c.189 0 .34-.151.34-.34 0-.075-.013-1.763-1.209-2.896-.743-.706-1.764-1.021-3.036-.945-1.31.076-2.305.504-2.96 1.285-.944 1.12-.806 2.531-.806 2.594a.34.34 0 00.378.302.34.34 0 00.302-.378c0-.012-.113-1.196.643-2.078.529-.617 1.36-.969 2.481-1.032 1.071-.063 1.927.189 2.519.755.983.92.995 2.381.995 2.393.013.189.164.34.353.34z" fill="#376BA5"/><path d="M442.1 262.846l-1.134-6.688.693-7.115a2.47 2.47 0 011.877 2.103l.34 2.884 2.242.327 9.434-7.002a.915.915 0 01.944-.088.899.899 0 01.151 1.511l-4.471 3.527 1.247-.643c.63-.314 1.385.063 1.486.756.063.403-.113.793-.453 1.02l-.983.655.114.529a1.574 1.574 0 01-.731 1.688l-.567.34a1.57 1.57 0 01-.642 1.914l-.529.327a9.893 9.893 0 01-5.101 5.34l-.769.353-3.148-1.738z" fill="#E6B289"/><path d="M435.55 271.787l6.462-10.075 5.29 1.587-6.689 12.48-5.063-3.992z" fill="#E6B289"/><path d="M414.012 247.343s9.094-.303 11.449 8.475l7.116 18.324 5.983-7.707 5.316 5.327-8.213 12.392c-2.909 2.544-5.919 2.632-8.628-.126l-4.786-8.135-1.385 2.632c-.932 9.924-.189 19.142 1.31 29.621l6.171 35.615s-18.918 4.521-39.852.894c-2.771-16.775.429-43.121 2.318-48.171.504-1.348 1.033-2.67 1.524-3.98a23.238 23.238 0 00.391-15.1l-3.855-12.241-2.216-10.176s3.715-3.715 9.358-5.831c5.617-2.128 17.999-1.813 17.999-1.813z" fill="#84CD3B"/><path opacity=".05" d="M390.471 264.622l-1.083 30.464s.592 2.028 3.69 3.262c2.973 1.184 6.172-1.108 6.147-4.295-.151-22.391-4.27-43.234-3.174-44.38 1.095-1.159.793 23.89 6.751 28.94 1.058 7.569 1.94 15.894 2.355 24.042 2.116 14.659.428 22.089-.302 25.465a4.298 4.298 0 01-3.728 3.375c-3.401.365-9.951.655-13.742-1.839-2.557-1.688-5.328-3.514-6.902-7.279-1.121-3.829 5.605-19.231 5.857-23.601.907-16.007 1.058-27.82 4.131-34.154z" fill="#000"/><path d="M390.471 264.622l-1.184 33.272s3.728 9.295 10.782 7.645c.554-24.256-5.202-54.632-4.018-55.854 1.587-1.662 6.373 26.989 7.746 53.373 3.917 27.152-1.789 27.265-1.789 27.265s-16.185 4.774-21.513-7.946c-1.121-3.829 5.605-19.231 5.857-23.601.895-16.007 1.046-27.82 4.119-34.154z" fill="#DF6631"/><path opacity=".05" d="M381.05 317.036c.982-3.929 2.783-8.992 4.018-12.971.982-.706 2.191-1.033 3.69-.756 2.028.378 3.766.655 5.24.869 1.624 1.196 3.652 1.927 6.083 1.36 0-.239 0-.478.013-.718h.012s5.555 9.181 3.842 14.017c-9.938 4.924-21.4-.579-22.898-1.801z" fill="#000"/><path d="M400.069 303.208s4.572 10.239 2.846 15.075c-13.2 4.181-22.117-3.866-22.117-3.866s.151-14.962 7.947-13.526c7.797 1.448 11.324 2.317 11.324 2.317z" fill="#DF6631"/><path d="M386.226 292.504l9.85 8.324c1.108.063 3.338-.39 4.018-.012.05 1.398.529 3.715 1.99 4.848l2.62 1.461c1.474.731 1.637.932 1.398 1.877l-4.094-1.713-1.788-1.259 1.99 1.952 2.242 1.284a.864.864 0 01.353 1.146l-.277.567c-.328.189-.58.315-.58.315l-3.451-.302-3.602-1.789s-1.209-.415-4.018-4.924l-10.14-7.556 3.489-4.219z" fill="#E6B289"/><path d="M382.75 263.878c-.756 3.967-6.764 24.142-6.764 24.142a5.434 5.434 0 001.587 5.617l6.096 5.076 4.245-5.315-4.585-4.357s3.905-8.262 6.26-13.312c3.716-7.934 7.041-14.508 6.437-20.818l-3.703-2.115c-5.076-.504-8.25 4.218-9.573 11.082z" fill="#79BB37"/><path d="M408.382 213.793s10.492-4.874 14.925 6.171c3.779 9.433-3.564 29.18-12.709 27.983-14.106-1.851-2.216-34.154-2.216-34.154z" fill="#38281A"/><path d="M411.669 239.459l-.277 7.582 2.62.289s2.544 5.693 3.073 9.232c.567 3.803-11.109 5.554-15.064-6.549-3.955-12.103 3.766-15.365 3.766-15.365l5.882 4.811z" fill="#E6B289"/><path d="M405.774 234.66l5.882 4.798-.251 6.7c-.051-.025-.114-.05-.164-.088l-9.233-5.403.139-2.015c1.675-2.657 3.627-3.992 3.627-3.992z" fill="#D89C73"/><path d="M419.806 226.184c-.668 2.154 1.373 5.781.743 7.834-.353 1.146-2.595 5.768-4.346 8.186-.768 1.07-1.801 2.078-3.123 2.141a4.273 4.273 0 01-2.381-.592l-8.842-5.176 1.046-15.214 14.182-5.427 1.713 1.863a5.458 5.458 0 011.335 4.648l-.327 1.737z" fill="#E6B289"/><path d="M417.085 217.936s-2.003 5.176-6.751 6.75c-3.716 1.235-3.791 6.738-6.877 5.92-1.285 8.362 2.242 11.649.088 19.419-2.154 7.771-.264 16.41-.264 16.41s-12.294-6.713-12.785-25.855c-.34-13.324 1.852-18.324 5.983-23.274 3.829-4.584 10.467-5.83 14.938-4.407 2.62 1.108 3.917 2.09 5.668 5.037z" fill="#473522"/><path d="M404.087 231.361c-.227-.781-.819-1.436-1.613-1.625a1.728 1.728 0 00-1.184.113c-1.335.617.139 4.836 2.205 5.164 1.536.239.995-2.292.592-3.652z" fill="#E6B289"/><path d="M401.945 235.265c.152.542.718.844 1.26.693.542-.151.844-.718.693-1.26a1.016 1.016 0 00-1.26-.692 1.03 1.03 0 00-.693 1.259z" fill="#fff"/><path d="M417.954 228.817c-.05.101-.063.164-.063.164s.013-.063.063-.164z" fill="#D89C73"/><path d="M452.957 245.932c.038.013.063.038.101.063l.063.038c.466.327.655.919.428 1.587l-3.955 11.662c-.327.969-1.398 1.712-2.381 1.675l-4.269-.202c-1.058-.05-1.449-.73-1.449-.73l.92-1.159 3.866-11.397c.328-.97 1.398-1.713 2.381-1.675l3.388.163.353-.44-.063.075.617.34z" fill="#BD6A9E"/><path d="M451.672 245.29l-4.27-.202c-.982-.05-2.053.706-2.38 1.675l-3.955 11.662c-.328.97.201 1.788 1.184 1.839l4.27.201c.982.051 2.053-.705 2.38-1.675l3.955-11.661c.328-.97-.201-1.801-1.184-1.839z" fill="#3C3C3B"/><path d="M448.334 258.475l-6.751-.302 3.829-11.146 6.562.303-3.64 11.145z" fill="#fff"/><path d="M452.189 252.33l-1.424.894a2.298 2.298 0 00-1.045 2.343l.013.05-.655.353a.893.893 0 00-.454.881.87.87 0 001.159.718l2.532-.894-.126-4.345z" fill="#E6B289"/><path opacity=".05" d="M424.328 279.431l-2.079-3.539a16.804 16.804 0 001.083-10.893l-1.083-4.547 1.688 3.665a19.382 19.382 0 01.391 15.314z" fill="#000"/><path d="M428.358 418.795h-1.146v-3.703a5.396 5.396 0 00-1.562-3.79l-.466-.466 1.663-.643 3.539.643-.504.516a5.32 5.32 0 00-1.524 3.74v3.703zm9.938-.492a.34.34 0 00.302-.176l2.028-3.766a.329.329 0 00-.013-.34.355.355 0 00-.302-.163l-4.774.151 1.802-4.71a.358.358 0 00-.089-.378.323.323 0 00-.378-.05l-5.151 2.493-.655-5.025a.333.333 0 00-.139-.226l-4.61-3.426a.342.342 0 00-.403.554l4.497 3.337.693 5.353a.349.349 0 00.176.264.39.39 0 00.315.013l4.799-2.33-1.675 4.383a.374.374 0 00.037.327.315.315 0 00.29.139l4.686-.151-1.751 3.236a.35.35 0 00.138.466c.063.013.114.025.177.025z" fill="#376BA5"/><path d="M426.116 410.143a.38.38 0 00.202-.063l4.547-3.375 3.766-.831a.341.341 0 00.264-.403.349.349 0 00-.415-.265l-3.842.844a.244.244 0 00-.126.063l-4.61 3.426a.343.343 0 00-.076.478.433.433 0 00.29.126z" fill="#376BA5"/><path opacity=".05" d="M403.003 279.154s6.752-1.158 9.737-1.473c2.985-.315 5.957.705 5.718.97-.907.289-6.99 1.851-15.455.503z" fill="#000"/><path d="M226.227 186.868l-7.608.717-7.28-.692c-7.394-.706-14.838-1.486-21.702 1.36l-1.701.705 7.772 14.999h45.809l5.819-15.969c-6.7-2.67-13.93-1.801-21.109-1.12z" fill="#84CD3B"/><path opacity=".07" d="M226.227 186.868l-7.608.717-7.28-.692c-7.394-.706-14.838-1.486-21.702 1.36l-1.701.705s9.649-5.252 30.683 11.423c19.586-19.231 28.717-12.393 28.717-12.393-6.7-2.67-13.93-1.801-21.109-1.12z" fill="#000"/><path d="M245.46 160.621s2.242 19.155 0 21.661c-2.242 2.507-15.77 9.748-15.77 9.748v-31.409h15.77zm-53.795 0s-1.461 19.168.604 22.291c2.066 3.123 14.762 9.118 14.762 9.118v-31.409h-15.366z" fill="#FAC590"/><path d="M189.46 160.622l28.983 8.286 28.415-8.286-1.549-8.74c-.769-4.358-3.892-7.809-7.948-8.816l-18.918-4.672-19.234 4.735c-3.955.97-7.015 4.282-7.884 8.488l-1.865 9.005z" fill="#D75552"/><path opacity=".1" d="M191.325 154.778c.869-4.206 3.942-7.518 7.884-8.488l19.234-5.365 18.918 5.315c4.056 1.007 7.179 4.458 7.948 8.815l1.007 5.73.529-.151-1.549-8.74c-.768-4.357-3.892-7.808-7.948-8.815l-18.918-4.673-19.233 4.736c-3.955.969-7.016 4.281-7.885 8.488l-1.864 9.004.617.177 1.26-6.033z" fill="#000"/><path d="M238.343 186.653s-13.338 7.972-19.724 7.682c-6.386-.277-18.729-5.377-18.729-5.377v-31.636h36.942l1.511 29.331z" fill="#D75552"/><path d="M218.354 153.191a6.584 6.584 0 01-6.587-6.586v-4.559h13.175v4.559a6.585 6.585 0 01-6.588 6.586zm9.535-14.584h-18.755a2.32 2.32 0 01-2.317-2.317v-1.461a2.318 2.318 0 012.317-2.317h20.078a1.01 1.01 0 011.007 1.007v2.771a2.33 2.33 0 01-2.33 2.317z" fill="#FAC590"/><path opacity=".5" d="M211.767 147.31l3.086 2.367a7.057 7.057 0 006.99 0l3.086-2.216v-3.514h-13.175v3.363h.013z" fill="#ECAD6F"/><path d="M226.075 145.622l-4.37 3.136a6.459 6.459 0 01-6.373 0l-4.119-3.148a3.492 3.492 0 01-1.323-2.267l-1.171-8.287c-.857-6.02 3.816-15.1 9.9-15.1h-.101c6.008 0 10.757 8.979 10.014 14.936l-1.033 8.35a3.53 3.53 0 01-1.424 2.38z" fill="#FAC590"/><path opacity=".5" d="M213.757 127.16s4.572 3.463 14.397 3.803c1.637-1.247-1.638-7.984-1.638-7.984l-12.759 4.181z" fill="#ECAD6F"/><path d="M227.662 118.167a6.49 6.49 0 00-5.441-2.972h-5.63c-3.3 0-6.499 1.423-8.527 4.03-.92 1.184-1.549 4.27-1.373 5.68l.705 5.491 1.424 5.743c.05.277.453.264.478-.013.24-2.241.139-5.692.139-5.692s3.363-2.343 4.333-3.275c3.312 1.071 8.237 1.978 11.739 1.978h1.788s.265 4.08.668 6.863c.05.353.554.353.604 0l1.159-6.851c4.912-2.128 3.905-7.405 3.905-7.405l-2.734-.982a6.652 6.652 0 01-3.237-2.595z" fill="#514034"/><path d="M238.066 194.739l3.514-6.184.454-1.65h-46.465l.441 1.65 2.897 5.755 39.159.429z" fill="#B7B9BB"/><path d="M242.034 186.905h-46.465c0 1.826 2.116 3.312 3.943 3.312h39.209a3.316 3.316 0 003.313-3.312z" fill="#B7B9BB"/><path d="M239.641 169.84h-42.057c-1.347 0-2.393 1.209-2.179 2.544l2.683 17.178a4.074 4.074 0 004.018 3.438h33.013a4.063 4.063 0 004.018-3.438l2.683-17.178c.214-1.335-.832-2.544-2.179-2.544z" fill="#FDFDFD"/><path d="M238.595 193v.227a2.392 2.392 0 01-2.393 2.393h-35.179a2.393 2.393 0 01-2.393-2.393V193h39.965z" fill="#B7B9BB"/><path d="M239.641 170.47h-42.057c-1.347 0-2.393 1.209-2.179 2.544l2.998 19.218a1.654 1.654 0 001.638 1.398h37.131c.819 0 1.511-.592 1.637-1.398l2.998-19.218c.227-1.335-.819-2.544-2.166-2.544z" fill="#C0C3C4"/><path d="M221.151 182.774c0 1.121-1.134 2.027-2.545 2.027-1.398 0-2.544-.906-2.544-2.027s1.134-2.028 2.544-2.028c1.411 0 2.545.907 2.545 2.028z" fill="#FDFDFD"/><path d="M231.567 229.535l-1.7 6.335c-.24.907.088 1.876.843 2.443l6.865 5.201a25.28 25.28 0 008.729 4.27c1.297.34 2.67.012 3.665-.895a2.895 2.895 0 00.126-4.143l-8.225-8.501-10.303-4.71z" fill="#252E33"/><path d="M246.795 245.995a25.183 25.183 0 01-8.729-4.269l-8.111-6.146-.076.277a2.314 2.314 0 00.844 2.443l6.865 5.202a25.29 25.29 0 008.728 4.269c1.298.34 2.67.013 3.665-.894a2.84 2.84 0 00.933-2.33c-.126.214-.643 2.04-4.119 1.448z" fill="#D1D3D4"/><path d="M247.336 187.987a5.162 5.162 0 00-6.31 3.64l-1.373 5.138-9.207 34.381 3.325 3.338 10.265.302 9.208-34.381.403-1.486c1.285-4.761-1.549-9.66-6.311-10.932z" fill="#84CD3B"/><path opacity=".07" d="M239.653 196.778l-9.194 34.381 3.325 3.338 5.869-37.719z" fill="#000"/><path d="M205.583 229.762l1.675 6.334a2.317 2.317 0 01-.844 2.444l-6.877 5.176a25.303 25.303 0 01-8.741 4.244c-1.298.34-2.671 0-3.666-.907a2.893 2.893 0 01-.113-4.143l8.25-8.476 10.316-4.672z" fill="#252E33"/><path d="M190.304 246.184a25.178 25.178 0 008.742-4.244l8.124-6.121.075.277a2.315 2.315 0 01-.844 2.444l-6.877 5.176a25.19 25.19 0 01-8.741 4.244c-1.297.34-2.67 0-3.665-.907a2.893 2.893 0 01-.932-2.33c.126.214.642 2.028 4.118 1.461z" fill="#D1D3D4"/><path d="M189.926 188.164a5.149 5.149 0 016.298 3.665l1.36 5.151 9.107 34.406-3.338 3.337-10.265.265-9.107-34.406-.39-1.486a8.93 8.93 0 016.335-10.932z" fill="#84CD3B"/><path opacity=".07" d="M197.584 196.979l9.107 34.407-3.338 3.325-5.769-37.732z" fill="#000"/><path d="M327.935 382.588s1.184 15.969 2.317 20.062c1.134 4.08 7.62 16.825 7.62 16.825s4.95 1.197 3.666-1.045c-1.474-2.594-5.001-16.334-5.001-16.334l.958-15.705-9.56-3.803z" fill="#FDC487"/><path d="M344.233 417.648h-4.245l-2.33.479s.089 2.519 1.436 3.211c1.348.68 11.701 0 11.701 0-1.221-1.561-6.562-3.69-6.562-3.69z" fill="#FDC487"/><path d="M327.141 346.846c-15.895-1.083-29.725 31.308-29.725 31.308 4.988 3.123 11.575 1.31 14.258-3.929 4.043-7.896 17.47-22.002 17.81-23.072.579-1.801-.416-3.363-2.343-4.307z" fill="#161616"/><path d="M297.416 378.154a9.85 9.85 0 003.149 1.285c-.126-10.126 16.878-33.651 26.576-32.606-.592-.075-1.612-.567-3.375-.239-15.82 2.934-26.35 31.56-26.35 31.56z" fill="#272727"/><path d="M327.809 378.482c-3.401 1.385-14.51-2.166-14.51-2.166-3.225.365-6.071-.932-8.905 1.423-3.023 2.519-2.104 9.722-2.104 9.722l1.247.617.303 9.823a4.448 4.448 0 01-4.081 4.572s-6.625 1.864-9.359 4.181c-2.733 2.317 28.806 10.73 28.806 10.73s3.413-8.4 8.326-12.178c4.912-3.778 6.839-14.256 6.839-14.256s1.159-1.826 3.804-3.753c-.277-8.098-6.978-10.101-10.366-8.715z" fill="#DF6631"/><path d="M328.98 378.029a17 17 0 00-1.184.453c-.013 0-.013 0-.025.013-1.02.403-2.129-.378-2.167-1.474l-.063-1.838-6.574-9.698s-.92 10.063-5.681 10.844c.957 5.213 2.834 8.664 4.597 12.064 3.804 7.33 10.316 7.255 11.626.366.668-3.464-.479-9.76-.529-10.73z" fill="#FDC487"/><path opacity=".05" d="M317.077 372.764c1.524 2.305 3.766 4.937 5.731 6.561 3.212 2.658 4.749 2.179 6.185.303v-1.6c-.441.151-.832.303-1.184.454-.013 0-.013 0-.026.012-1.02.403-2.128-.378-2.166-1.473l-.063-1.839-7.041-6.851c-.289 1.348-.743 2.985-1.436 4.433z" fill="#000"/><path d="M321.889 413.404c-3.602-2.115-12.054-5.528-17.672-7.72-4.861-1.889-10.391-1.41-14.698 1.512-2.104 1.435-3.88 3.387-4.384 6.007-1.335 6.952 3.351 12.845 3.351 12.845l38.668-2.972 2.04-4.546c0 .013-1.662-1.814-7.305-5.126z" fill="#376BA5"/><path d="M277.88 426.112c-1.75-.101-10.416 3.375-14.736 4.974-1.751.642-2.948 3.363-2.985 4.169-.038.768 1.876 3.74 6.776 1.901 4.9-1.851 14.371-6.511 14.371-6.511l-.226-3.047s-.429-1.323-3.2-1.486z" fill="#002F7C"/><path d="M278.964 426.553c-2.217-.076-3.426.579-10.656 3.45-3.388 1.335-3.061 6.599.504 5.416 6.222-2.078 7.355-3.023 10.051-3.967 1.788-2.809 3.073-4.799.101-4.899z" fill="#FDC487"/><path d="M319.408 424.197c-12.281-.629-42.334 2.053-42.334 2.053s-1.662.97-1.536 3.375c.126 2.406 1.864 2.67 1.864 2.67 18.792.416 24.851 4.307 36.199 4.496 12.646.214 16.714-3.753 16.966-5.466.239-1.7 2.192-6.448-11.159-7.128z" fill="#376BA5"/><path d="M277.062 426.25c-1.134.454-1.487 2.406-1.487 2.406.341-.642 1.184-1.385 1.663-1.373 8.842.227 32.66 3.426 42.573 2.292 5.277-.604 8.098-1.687 9.56-2.896-1.474-1.197-4.371-2.192-9.976-2.481-12.268-.63-41.187 1.586-42.333 2.052z" fill="#3763A5"/><path d="M274.643 420.256c-1.75-.101-10.756 2.393-14.144 5.503-2.343 2.141-2.771 4.509-2.595 5.34.164.756 1.486 2.569 6.386.731 4.9-1.852 14.371-6.511 14.371-6.511l-.226-3.048s-1.021-1.851-3.792-2.015z" fill="#002F7C"/><path d="M276.306 421.225c-2.217-.075-3.426.58-10.656 3.451-3.388 1.335-3.06 6.599.504 5.415 6.222-2.078 7.305-3.387 11.235-3.35 2.595-1.737 1.902-5.415-1.083-5.516z" fill="#FDC487"/><path d="M313.223 416.062c-11.31.907-17.558 5.264-36.363 5.164 0 0-1.322.869-.944 2.896.302 1.612 1.196 2.62 1.196 2.62s30.494 2.921 42.711 1.536c13.288-1.511 11.046-6.133 10.681-7.821-.365-1.687-4.685-5.402-17.281-4.395z" fill="#376BA5"/><path opacity=".05" d="M314.697 415.999l1.096 1.02 7.103 2.393h3.25c.844 0 1.612-.466 1.99-1.222.038-.075.063-.151.088-.226-2.28-1.297-6.499-2.418-13.527-1.965z" fill="#000"/><path d="M322.871 433.064l23.302 7.606 30.834-9.533-20.984-7.607-33.152 9.534z" fill="#B7BABC"/><path d="M332.822 434.449l13.741 4.824 25.191-8.136-12.091-4.433-26.841 7.745z" fill="#30302F"/><path d="M381.201 408.493l-27.647 7.417a1.723 1.723 0 00-1.222 1.197l-6.802 23.374.643.214 36.073-31.22c.114-.63-.453-1.146-1.045-.982z" fill="#CDCFD0"/><path d="M381.793 409.009l-27.698 7.468a1.715 1.715 0 00-1.209 1.184l-6.7 23.009 30.821-9.533 5.252-21.687a.372.372 0 00-.466-.441z" fill="#C0C3C4"/><path d="M322.871 433.063c0 1.31.832 2.469 2.066 2.884l20.442 6.927a2.58 2.58 0 001.6.013l28.529-9.017a2.141 2.141 0 001.499-2.053v-.693l-30.822 9.534-23.314-7.595z" fill="#CDCFD0"/><path d="M364.726 424.903c-1.02 1.134-1.285 2.557-.579 3.186.692.617 2.078.202 3.098-.932 1.02-1.133 1.285-2.556.579-3.186-.692-.617-2.078-.201-3.098.932z" fill="#FDFAFD"/><path d="M336.336 423.215a3.067 3.067 0 00-1.046-1.322l-5.277-3.728-15.304-11.196-2.367-18.765c-2.595 1.763-6.815.806-8.792-.126.504 2.859 3.602 20.327 7.028 24.155 2.607 2.909 16.891 8.388 16.891 8.388l1.549 3.324 5.328 4.572 2.821 1.146a.977.977 0 001.272-1.285l-2.103-5.163z" fill="#FDC487"/><path d="M327.469 348.37c-1.802.252-3.061 1.914-2.809 3.703.252 1.801 2.028-.277 3.829-.529 1.801-.252 2.935 1.423 2.683-.366-.252-1.801-1.915-3.06-3.703-2.808z" fill="#ECC933"/><path d="M323.64 351.594c-4.421 1.637-7.545 6.335-7.18 11.36.214 2.921 1.915 6.599 2.091 5.125.05-.378 13.452 5.327 17.608 1.663 9.598-8.489.429-15.176.429-15.176s-4.925-5.957-12.948-2.972z" fill="#272727"/><path d="M318.236 367.815c.088 1.31.177 2.405.265 2.947.315 1.939 4.244 6.939 5 7.758 1.713 1.876 3.754.667 3.754.667s5.302-2.972 7.217-4.949c.818-.857 1.196-2.947 2.065-5.453.063-.177.492-1.461-1.511-3.602-2.116-2.267-4.862-4.459-5.832-7.141-5.302 2.254-6.083 6.335-8.048 5.441-.114-1.436 1.436-4.358-1.096-4.03-1.297.163-2.695 4.596-1.096 5.906a6.268 6.268 0 00-.68 2.217.455.455 0 01-.038.239z" fill="#FDC487"/><path d="M125.337 71.105l-12.759 2.519-23.805.73 3.841-12.544h27.836l4.887 9.295z" fill="#E7643C"/><path d="M115.198 21.183h-17.91V32.44h17.91V21.183z" fill="#FAE071"/><path opacity=".1" d="M115.198 21.183h-17.91V32.44h17.91V21.183z" fill="#000"/><path d="M125.816 72.263l1.486-1.196a6.558 6.558 0 002.355-3.955H84.629l.012.063a6.573 6.573 0 002.268 3.892l.957.793 37.95.403z" fill="#B7B9BB"/><path d="M127.982 44.443l2.116 16.964a5.963 5.963 0 01-3.224 6.058l-10.744 5.44V44.443h11.852z" fill="#FDC487"/><path opacity=".5" d="M127.982 45.25S122.44 59.48 127 61.105L116.117 73.7V45.237h11.865v.013z" fill="#ECAD6F"/><path d="M84.452 44.443l-1.448 16.838a5.952 5.952 0 003.59 5.995l9.333 4.005V44.456H84.452v-.013z" fill="#FDC487"/><path d="M82.979 46.786l24.662 15.692 21.424-15.692-1.372-4.37a13.68 13.68 0 00-10.48-10.566l-11.147-2.431-11.134 2.468A13.686 13.686 0 0084.604 42l-1.625 4.786z" fill="#DF6631"/><path d="M111.545 30.616v-3.4h-11.033v3.45l-2.117.466v2.696a7.648 7.648 0 007.646 7.644 7.649 7.649 0 007.645-7.644v-2.746l-2.141-.466z" fill="#FDC487"/><path d="M94.34 10.957v22.001a9.783 9.783 0 005.895 8.98v-14.86L97.526 12.38l-3.186-1.423z" fill="#FAE071"/><path opacity=".1" d="M94.34 22.266V32.97a9.783 9.783 0 005.895 8.98 29.226 29.226 0 01-5.316-14.03l-.58-5.654z" fill="#000"/><path d="M98.005 21.133a2.414 2.414 0 01-2.884-1.851l-.265-1.21a2.413 2.413 0 011.852-2.883l1.297 5.944z" fill="#FDC487"/><path opacity=".5" d="M111.545 30.616v-3.4h-11.033v3.45l-.076.013c.479.454.982.894 1.537 1.323 0 0 2.279 1.662 4.055 1.662 1.776 0 4.107-1.562 4.107-1.562.604-.453 1.171-.92 1.687-1.41l-.277-.076z" fill="#ECAD6F"/><path d="M114.455 21.485c-.454 3.476-2.293 5.944-5.114 8.022 0 0-2.192 1.486-3.879 1.486-1.688 0-3.842-1.562-3.842-1.562-2.645-2.04-4.383-4.345-4.874-7.644l-1.02-8.312c-.379-3.073 2.014-5.768 5.113-5.768h9.333c3.048 0 5.441 2.645 5.114 5.68l-.831 8.098z" fill="#FAC590"/><path d="M94.604 12.166l1.524 5.365.378-1.386c.643-2.393 2.633-4.168 5.064-4.584 2.619-.428 6.02-1.385 8.489-3.438a16.257 16.257 0 014.018 11.826l-1.486 21.988a14.114 14.114 0 006.108-9.457l.353-2.129c1.134-6.927 2.607-29.33-8.363-28.928 0 0-4.711-3.224-10.895 0-4.069 2.128-6.235 7.04-5.19 10.743z" fill="#FAE071"/><path d="M94.604 12.166l1.84 7.178a1.03 1.03 0 001.02-.869c.428-2.493.503-6.196 4.093-6.914 2.607-.529 6.021-1.385 8.489-3.438.806-.806 1.776-5.541.617-6.7 0 0-4.71-3.224-10.895 0-4.043 2.128-6.21 7.04-5.164 10.743z" fill="#FAE071"/><path opacity=".1" d="M110.046 8.123s1.776-5.541.617-6.7c0 0-4.71-3.224-10.895 0 0 0 4.396-1.839 7.218.063 3.01 2.028 3.06 6.637 3.06 6.637z" fill="#000"/><path d="M98.27 127.387s-6.84 9.181-7.495 10.289c-.667 1.096-.907 3.413 1.587 3.64 2.494.226 6.411 1.045 9.069-3.262 2.658-4.307 3.564-6.385 3.476-8.136a25.41 25.41 0 00-.441-3.35l-6.197.819z" fill="#2C2C54"/><path d="M98.61 125.862s-3.502 5.856-4.812 8.186c-1.033 1.852-1.7 2.821 1.26 3.086 2.96.264 4.987-.088 7.481-5.416 1.109-2.367 1.739-6.334 1.739-6.334l-5.668.478z" fill="#FDC487"/><path d="M133.764 109.491s7.771 4.232 8.766 4.874c.995.642 5.101 3.476 3.111 5.378-1.663 1.599-6.562 2.027-10.505-.466-3.942-2.494-5.214-3.514-5.831-5-.617-1.486-.995-2.947-.995-2.947l5.454-1.839z" fill="#2C2C54"/><path d="M132.869 108.37l6.512 4.534c1.6 1.108 4.408 2.72 2.066 4.131-2.343 1.41-5.24 1.183-9.459-2.217-1.877-1.511-4.006-4.546-4.006-4.546l4.887-1.902z" fill="#FDC487"/><path d="M104.126 84.567l9.233 2.86a9.328 9.328 0 0011.512-5.706c.617-1.688.844-3.488.668-5.264l-.202-5.352-19.12 3.261-2.091 10.201z" fill="#2C2C54"/><path d="M104.126 84.567l9.233 2.86a9.328 9.328 0 0011.512-5.706c.617-1.688.844-3.488.668-5.264l-.202-5.352-19.12 3.261-2.091 10.201z" fill="#376BA5"/><path d="M135.048 108.08L117.1 74.001a6.972 6.972 0 00-7.255-2.821l-21.072 3.186-1.26 2.393a6.149 6.149 0 00-.34 4.962 9.306 9.306 0 008.754 6.12c.932 0 1.864-.138 2.758-.415l9.233-2.859 19.548 28.084 7.582-4.571z" fill="#376BA5"/><path d="M108.925 78.611c-5.718-1.574-6.423 5.617-12.57 5.856-4.937.19-8.678-4.445-7.746-9.307.1-.503.151-.818.151-.818l-1.26 2.393a6.149 6.149 0 00-.34 4.962 9.306 9.306 0 008.754 6.12 9.33 9.33 0 002.759-.415l9.232-2.86 19.548 28.085 2.091-1.259-16.286-29.243c-.932-1.688-2.469-2.998-4.333-3.514z" fill="#376BA5"/><path d="M105.537 127.916l-7.948-1.6 4.232-39.494a5.574 5.574 0 016.134-4.95 5.57 5.57 0 014.799 4.106c1.852 6.94 1.146 13.186-.894 20.062l-6.323 21.876z" fill="#376BA5"/><path d="M127.34 48.134H86.581a2.142 2.142 0 00-2.116 2.468l2.595 16.65a3.95 3.95 0 003.892 3.337h31.992c1.94 0 3.59-1.41 3.892-3.338l2.595-16.649c.226-1.297-.781-2.468-2.091-2.468z" fill="#FDFDFD"/><path d="M126.332 70.588v.214a2.311 2.311 0 01-2.317 2.317H89.919a2.311 2.311 0 01-2.318-2.317v-.214h38.731z" fill="#B7B9BB"/><path d="M127.34 48.751H86.581a2.142 2.142 0 00-2.116 2.468l2.91 18.627a1.61 1.61 0 001.587 1.36h35.985c.793 0 1.473-.58 1.587-1.36l2.909-18.627a2.127 2.127 0 00-2.103-2.468z" fill="#C0C3C4"/><path d="M106.96 62.641c1.357 0 2.456-.88 2.456-1.965 0-1.084-1.099-1.964-2.456-1.964-1.356 0-2.456.88-2.456 1.964 0 1.086 1.1 1.965 2.456 1.965z" fill="#FDFDFD"/><path d="M20.228 412.409l-6.348 6.461 9.283 2.846 5.517-6.511-8.452-2.796z" fill="#073275"/><path d="M17.974 416.591c-.806-.113-4.32-4.106-4.32-4.106a3.476 3.476 0 00-1.99 3.149v1.839l-10.09 3.715a2.39 2.39 0 00-1.524 1.851 2.39 2.39 0 001.764 2.708c2.72.705 5.53 1.02 8.35.932l16.286-.492c1.852-.05 3.237-1.725 2.948-3.564l-.491-3.123a1.877 1.877 0 00-2.305-1.524c-1.462.366-3.25.806-3.653.869-.73.114-4.975-2.254-4.975-2.254z" fill="#323232"/><path d="M1.789 425.746a2.401 2.401 0 01-1.764-2.708c.038-.226.114-.453.214-.654a14 14 0 009.95 2.493l19.133-2.531.05.277a3.085 3.085 0 01-2.947 3.564l-16.286.491a29.646 29.646 0 01-8.35-.932z" fill="#D1D3D4"/><path d="M11.248 417.347l2.23 2.241m-4.308-1.574l2.015 2.04m-3.98-1.171l1.713 1.725m-3.565-1.146l1.36 1.373" stroke="#E1E3E4" stroke-width=".86" stroke-miterlimit="10" stroke-linecap="round"/><path d="M83.344 401.378c-20.48-18.437-34.297-31.472-42.106-21.976C31.06 390.56 17.28 413.065 17.28 413.065l11.978 8.665 19.196-25.566 21.84 20.73 29.272-.706 2.431-13.677c.012-.025-9.107 7.443-18.654-1.133z" fill="#2E364D"/><path d="M83.344 401.378c-20.48-18.437-34.297-31.472-42.106-21.976C31.06 390.56 17.28 413.065 17.28 413.065l11.978 8.665 19.196-25.566 21.84 20.73 29.272-.706 2.431-13.677c.012-.025-9.107 7.443-18.654-1.133z" fill="#D75552"/><path opacity=".05" d="M49.639 390.912c-10.178 11.158-26.413 26.435-26.413 26.435l6.046 4.37 19.195-25.566 21.84 20.73 29.272-.706c0-.012-41.728-2.594-49.94-25.263z" fill="#000"/><path d="M35.456 426.061h14.41v-12.014H31.11a4.862 4.862 0 00-3.855 1.902 4.865 4.865 0 00-.188 5.616 10.097 10.097 0 008.388 4.496z" fill="#D1D3D4"/><path d="M36.791 425.822h13.843v-11.536H32.622c-1.448 0-2.821.68-3.703 1.826a4.657 4.657 0 00-.176 5.39 9.65 9.65 0 008.048 4.32z" fill="#323232"/><path d="M35.141 417.46v4.257m2.935-4.849v5.667m2.469-6.372v7.078m3.048-7.078v7.783m31.451-66.37v9.899m0-9.899s-2.746 8.274-2.066 13.035" stroke="#E1E3E4" stroke-width=".86" stroke-miterlimit="10" stroke-linecap="round"/><path d="M83.57 345.889l-6.889-6.058-3.224-11.334-12.533-3.539-9.232 13.828 3.74 4.433 3.49 5.982a1.607 1.607 0 001.901.894l.819-.226 3.854 3.198c1.613 1.348 4.106 1.146 5.328-.566.013-.013.013-.026.025-.038l.504-.718 5.718 4.584 6.5-10.44z" fill="#FFA771"/><path d="M109.354 407.523v7.342a11.05 11.05 0 01-9.787 10.982l-19.284 2.229c-10.026 1.159-15.92 1.272-25.971.327l-4.421-.415c-4.711-.441-8.036-4.798-7.243-9.446a8.123 8.123 0 017.998-6.75h2.23c9.119 0 16.827-.693 25.846-2.09l4.622-8.312 26.01 6.133z" fill="#D75552"/><path opacity=".05" d="M87.614 410.999c-2.255.252-25.934 2.179-36.54 4.988-2.103.554-3.967 1.838-5.075 3.715-2.431 4.08.025 8.035 24.27 9.244-5.037.226-9.685.05-15.958-.542l-4.181-.39c-4.56-.429-8.074-4.459-7.557-9.005a8.119 8.119 0 018.06-7.216h2.23c9.12 0 16.828-.693 25.846-2.091.013-.012 11.386 1.008 8.905 1.297z" fill="#000"/><path d="M83.243 344.138c10.064.63 27.017 11.133 30.33 32.82 3.325 21.686-4.093 35.464-4.093 35.464s-17.32-1.902-26.149-11.032c1.147-10.088 11.84-11.977-3.829-28.525-2.934-3.098-4.66-7.229-4.458-11.486.503-10.251 5.932-17.455 8.2-17.241z" fill="#84CD3B"/><path d="M79.502 341.242s-6.146-.957-6.524-1.411c-.189-.226-1.297-1.523-2.368-2.783a3.44 3.44 0 00-4.71-.491l2.304 3.476-1.436 1.222-4.748-5.542a1.997 1.997 0 00-3.036 0l-5 5.793h-1.222a6.526 6.526 0 01-5.517-3.035 6.565 6.565 0 01-.692-5.541l2.09-6.335 2.343 1.877 2.23-3.161a12.51 12.51 0 019.812-5.29l1.184-.037a12.485 12.485 0 0112.683 10.264c.554 3.085 1.159 6.158 2.066 9.155l.541 1.839z" fill="#5E443F"/><path d="M73.217 346.657s2.242 2.947 1.852 8.073l-3.703-2.96 1.851-5.113z" fill="#EC9A69"/><path d="M75.207 359.541s4.484-12.355 22.005-7.607c1.423.39 3.564.554 4.748-.113 1.272-.088.592-6.121-3.514-6.121-1.852 0 .957-1.939-2.23-3.728-3.69-2.065-9.773-1.939-14.094 1.587-4.333 3.539-10.48 14.609-6.915 15.982z" fill="#79BB37"/><path d="M32.068 385.861c.214 0 .416.076.554.24l15.631 18.45-6.398 6.637-19.939-24.609 10.152-.718z" fill="#323232"/><path d="M74.3 404.803l-.63 4.697H41.377l6.222-5.793h25.745a.957.957 0 01.957 1.096z" fill="#B1B4B6"/><path d="M33.63 388.116l-8.338.731 16.034 18.752 5.063-3.992-12.76-15.491z" fill="#fff"/><path d="M40.419 409.501H73.67a2.983 2.983 0 01-2.985 2.985H43.404a2.983 2.983 0 01-2.985-2.985z" fill="#BBBEC0"/><path d="M40.935 411.188l-19.573-23.324a.783.783 0 01.113-1.108.783.783 0 011.109.113l19.573 23.324-1.222.995z" fill="#BBBEC0"/><path d="M45.998 408.695l3.565-4.446h13.339l-1.864 4.446h-15.04z" fill="#323232"/><path d="M64.186 407.599h7.658l.265-2.519h-7.217l-.706 2.519z" fill="#BBBEC0"/><path d="M33.63 388.116l-8.338.731 1.927 2.267 7.645-1.499-1.234-1.499zm1.511 2.796l-5.73 1.448 1.082 1.323 5.354-1.801-.706-.97zm1.348 1.675l-5.227 1.927 1.083 1.322 4.85-2.292-.706-.957zm1.587 2.279l-4.22 2.166 3.892 4.584 3.893-2.657-3.565-4.093z" fill="#E1E3E4"/><path d="M66.957 397.032l-2.682 1.738-5.82.63-5.353 6.083h2.759l6.524 1.498 9.157-2.733-4.585-7.216z" fill="#EC9A69"/><path d="M80.598 382.94l-15.001 13.388 4.018 7.38 21.651-14.433-10.668-6.335z" fill="#79BB37"/><path d="M63.607 402.309l-6.5-1.586-5.037 2.518-2.431 3.779c.932.34 1.99.075 2.657-.668l1.323-1.461-.29 2.683 1.348 1.385 3.3.491 9.497-1.864-.97-5.465-2.897.188z" fill="#F8AB7B"/><path d="M78.923 355.473c-4.534.34-5.744 9.508-4.534 13.904.869 3.135 4.156 22.303 4.156 22.303l-15.341 9.546s.516 6.952 4.774 7.708c4.257.768 24.548-8.917 24.624-13.677.063-4.761-.013-18.589-1.726-26.246-2.784-12.329-7.419-13.865-11.953-13.538z" fill="#79BB37"/></svg>